<svg xmlns="http://www.w3.org/2000/svg" xmlns:xlink="http://www.w3.org/1999/xlink" viewBox="0 0 981.43 981.43"><defs><style>.cls-1{fill:#252525;}.cls-2{fill:url(#Gradient_bez_nazwy_75);}.cls-3{fill:url(#Gradient_bez_nazwy_75-2);}.cls-4{fill:url(#Gradient_bez_nazwy_75-3);}.cls-5{fill:url(#Gradient_bez_nazwy_75-4);}.cls-6{fill:url(#Gradient_bez_nazwy_75-5);}.cls-7{fill:url(#Gradient_bez_nazwy_75-6);}.cls-8{fill:url(#Gradient_bez_nazwy_75-7);}.cls-9{fill:url(#Gradient_bez_nazwy_75-8);}.cls-10{fill:url(#Gradient_bez_nazwy_75-9);}.cls-11{fill:url(#Gradient_bez_nazwy_75-10);}.cls-12{fill:url(#Gradient_bez_nazwy_75-11);}.cls-13{fill:url(#Gradient_bez_nazwy_75-12);}.cls-14{fill:url(#Gradient_bez_nazwy_75-13);}.cls-15{fill:url(#Gradient_bez_nazwy_75-14);}.cls-16{fill:url(#Gradient_bez_nazwy_75-15);}.cls-17{fill:url(#Gradient_bez_nazwy_75-16);}.cls-18{fill:url(#Gradient_bez_nazwy_75-17);}.cls-19{fill:url(#Gradient_bez_nazwy_75-18);}.cls-20{fill:url(#Gradient_bez_nazwy_75-19);}.cls-21{fill:url(#Gradient_bez_nazwy_75-20);}.cls-22{fill:url(#Gradient_bez_nazwy_75-21);}.cls-23{fill:url(#Gradient_bez_nazwy_75-22);}.cls-24{fill:url(#Gradient_bez_nazwy_75-23);}.cls-25{fill:url(#Gradient_bez_nazwy_75-24);}.cls-26{fill:url(#Gradient_bez_nazwy_75-25);}</style><linearGradient id="Gradient_bez_nazwy_75" x1="383.66" y1="173.88" x2="390.38" y2="173.88" gradientUnits="userSpaceOnUse"><stop offset="0" stop-color="#90f9c4"/><stop offset="0.48" stop-color="#39f3bb"/><stop offset="1" stop-color="#28c76f"/></linearGradient><linearGradient id="Gradient_bez_nazwy_75-2" x1="344.61" y1="150.59" x2="479.44" y2="150.59" xlink:href="#Gradient_bez_nazwy_75"/><linearGradient id="Gradient_bez_nazwy_75-3" x1="467.42" y1="128.33" x2="468.34" y2="128.33" xlink:href="#Gradient_bez_nazwy_75"/><linearGradient id="Gradient_bez_nazwy_75-4" x1="472.44" y1="141.02" x2="488.03" y2="141.02" xlink:href="#Gradient_bez_nazwy_75"/><linearGradient id="Gradient_bez_nazwy_75-5" x1="479.9" y1="570.71" x2="485.96" y2="570.71" xlink:href="#Gradient_bez_nazwy_75"/><linearGradient id="Gradient_bez_nazwy_75-6" x1="330.97" y1="511.96" x2="748.55" y2="511.96" xlink:href="#Gradient_bez_nazwy_75"/><linearGradient id="Gradient_bez_nazwy_75-7" x1="531.24" y1="552.31" x2="557.17" y2="552.31" xlink:href="#Gradient_bez_nazwy_75"/><linearGradient id="Gradient_bez_nazwy_75-8" x1="246.86" y1="419.76" x2="278.91" y2="419.76" xlink:href="#Gradient_bez_nazwy_75"/><linearGradient id="Gradient_bez_nazwy_75-9" x1="253.47" y1="342.88" x2="278.87" y2="342.88" xlink:href="#Gradient_bez_nazwy_75"/><linearGradient id="Gradient_bez_nazwy_75-10" x1="243.38" y1="708.4" x2="266.49" y2="708.4" xlink:href="#Gradient_bez_nazwy_75"/><linearGradient id="Gradient_bez_nazwy_75-11" x1="232.87" y1="360.89" x2="249.82" y2="360.89" xlink:href="#Gradient_bez_nazwy_75"/><linearGradient id="Gradient_bez_nazwy_75-12" x1="515.64" y1="215.56" x2="544.28" y2="215.56" xlink:href="#Gradient_bez_nazwy_75"/><linearGradient id="Gradient_bez_nazwy_75-13" x1="251.39" y1="746.99" x2="274.32" y2="746.99" xlink:href="#Gradient_bez_nazwy_75"/><linearGradient id="Gradient_bez_nazwy_75-14" x1="469.05" y1="102.23" x2="503.44" y2="102.23" xlink:href="#Gradient_bez_nazwy_75"/><linearGradient id="Gradient_bez_nazwy_75-15" x1="537.25" y1="241.11" x2="545.06" y2="241.11" xlink:href="#Gradient_bez_nazwy_75"/><linearGradient id="Gradient_bez_nazwy_75-16" x1="413.28" y1="198.36" x2="425.06" y2="198.36" xlink:href="#Gradient_bez_nazwy_75"/><linearGradient id="Gradient_bez_nazwy_75-17" x1="474.57" y1="227.78" x2="484.99" y2="227.78" xlink:href="#Gradient_bez_nazwy_75"/><linearGradient id="Gradient_bez_nazwy_75-18" x1="288.64" y1="300.71" x2="288.78" y2="300.71" xlink:href="#Gradient_bez_nazwy_75"/><linearGradient id="Gradient_bez_nazwy_75-19" x1="290.6" y1="299.32" x2="290.62" y2="299.32" xlink:href="#Gradient_bez_nazwy_75"/><linearGradient id="Gradient_bez_nazwy_75-20" x1="289.2" y1="300.19" x2="289.64" y2="300.19" xlink:href="#Gradient_bez_nazwy_75"/><linearGradient id="Gradient_bez_nazwy_75-21" x1="290.62" y1="297.53" x2="295.49" y2="297.53" xlink:href="#Gradient_bez_nazwy_75"/><linearGradient id="Gradient_bez_nazwy_75-22" x1="289.64" y1="299.68" x2="290.6" y2="299.68" xlink:href="#Gradient_bez_nazwy_75"/><linearGradient id="Gradient_bez_nazwy_75-23" x1="288.78" y1="300.66" x2="288.8" y2="300.66" xlink:href="#Gradient_bez_nazwy_75"/><linearGradient id="Gradient_bez_nazwy_75-24" x1="288.8" y1="300.5" x2="289.2" y2="300.5" xlink:href="#Gradient_bez_nazwy_75"/><linearGradient id="Gradient_bez_nazwy_75-25" x1="543.55" y1="455.48" x2="572.42" y2="455.48" xlink:href="#Gradient_bez_nazwy_75"/></defs><title>Branch-Stable-black</title><g id="Warstwa_2" data-name="Warstwa 2"><g id="Warstwa_1-2" data-name="Warstwa 1"><rect class="cls-1" width="981.43" height="981.43"/><path class="cls-2" d="M383.82,176.38l6.56-5-6.72,2.2C383.68,174.39,383.74,175.31,383.82,176.38Z"/><path class="cls-3" d="M455.65,144.48c-14.83-.5,6.94-13.47,11.77-16C406.93,86,320.16,184.42,351.08,175c-1.57,4.36-2.3,6.4-3,8.38,7.48-.77,20.86-5,35.59-9.81-.16-5,1.1-5,9.14-4l-2.42,1.84c29-9.55,60.44-19.75,61.46-10.17,2.67,25-26.55,9.44-28,17.18,9.85,10.81,86.43-12,41.76-18.58a75.29,75.29,0,0,1,6.88-15.55C467.19,144.58,461.63,144.68,455.65,144.48Z"/><path class="cls-4" d="M467.42,128.49a.71.71,0,0,1,.14.1C468.74,127.88,468.49,127.93,467.42,128.49Z"/><path class="cls-5" d="M472.44,144.27c5.54-.32,10.71-.88,15.59-1.57Q480.14,132.1,472.44,144.27Z"/><path class="cls-6" d="M479.9,566.41a25.66,25.66,0,0,0,1.49,6.45C489.72,578.47,485.09,572,479.9,566.41Z"/><path class="cls-7" d="M699.59,761.53c-1.06,3.59-1.53,5.16-2.1,7.09-101.4-85.19-16.52-63.28,16.24-192.2,9.89-38.94,19.57-196.5-6.63-228.21C720.21,335,706.49,207,693.51,217.28c-49.71,39.59-58.72-42.83-110.32-71.56-38.05-21.19-58.54-8.25-95.16-3q6.95,9.31,14,36.24c6.59-23.2,2.09-31.33,20.75-6.47q-20.8,2.82-.14,17.27c6.25-10.82,21.4-19.28,29.05-2.7-22.22,2.93,25.07,19.19,5,48.5,32-10.42,41.82,53.84,7.52,43.77.42,3.92.75,6.95,1.21,11.17-13.24-4.35-11.7,10.57-21.21,13.33,24.64,33-2,13-24.23,12.7-.18,15.68,21.72,42.72,28.32,57.38-41.13,9.52-93.55-65-118,10,22.48-4.13,42-14.27,61.25,4.87-11.05,6.73-76.84,28.43-70.6,45.17a149.76,149.76,0,0,1,79.83,17.91c-23.75,23.29-50.21-17.66-70.67-7.55,97.26,93.39-42.74,52.31-22.27,124.13-12.74-5.25-7.21-14.59-7.17-23.1-35.67,29.07-9.15,142.38-1.31,152-10.15-4.62-55.15-24-47.72-10.52,12.2,22.2,28.57,36.07,36.35,60.83-31.69-12.76,18.51,24.78-3.68,29.36,13.89,19.89,24.33,77.32,24.33,99.47-70.21-6.94-42.55-98.67-74.89-118.29C313.14,853.21,410.68,905,500.17,886.08c35.73-7.55,137.68-79,181.23-56.47-4.31-12.69,18.6-38.4,29.07-30.85q-2.26-21.69,38.08-11C731,781.38,715.27,771.48,699.59,761.53Zm-6.83-258.38c21.78,8.66,2.73,1.09,0,0ZM499.24,421.3c-6-1.17-37.12,9.14-58.71,2.06C479.26,384.66,501,421.65,499.24,421.3Zm37.25-82.84c-8.79-14.22,23.4,8.72,24,29.18Q542.47,359.38,536.49,338.46ZM462,767.09q-18.78,17.08-38.76,32.78C373.77,763,477.84,744.41,462,767.09Zm62.24-115.85c-95.31,1.31-22.47,54.68-14,44.92,1.14,28.93,11.61,25.11,14.89,47.45-86.73-17-88.53-101.74-92.53-117.94l9.52-12.53c-23.85-4.18,19.88-19.65,5.23,8.66,6.76-.37,8.74,9.82,18.21,5.58C407.26,578.7,574.5,650.55,524.24,651.24Zm-17.85,34.57q-8.59,3.6-15.62-4.88Q507.87,673.69,506.39,685.81Zm-1.47-73.9q6.1-8,13.48.34Q511.14,622.63,504.92,611.91Zm35,12.38q-12.15,1.29-18-8.62c12.13-5.94,28.56,2.39,38.29,11.13C552,627,546.14,629.32,539.9,624.29Zm17.27-64.85c3.42,5.69,3,12.75-3.79,20.94-.47-.44-32.88-3.57-32.32,8.38-12.64-9.06-21.07-15.47-30.68-.82a54,54,0,0,1-9-15.08c-2.81-1.88-7.07-5.14-13.28-10.27a13.31,13.31,0,0,1,4.54-2.32c.85-.16,4.15,2.82,7.25,6.14-1.74-20.22,27.8-26,51.34-21.22-4.12-4.69-6.09-10.07-4.55-15.73,6.81-25,21.58,2.27,30.14-8.54,19.06-24-45.93-26.37-54.1-27,3.87-11.72,12.23-10.46,6.55-19.78,13.56-7.82,65.84-47.47,78.6-48.44,6.42-.48-4,80.2,1.74,91.13C610.86,557.29,582.48,565.86,557.17,559.44ZM636.5,391.77c-3.8-9.51-2-17.77,3.11-25.95C643.48,369.92,641.74,384,636.5,391.77Z"/><path class="cls-8" d="M531.24,545.19c5.72,6.49,15.56,11.63,25.93,14.25C553,552.44,542.83,547.54,531.24,545.19Z"/><path class="cls-9" d="M262.72,395.33c-17.12,6-25.68,56.32,2.19,49.76,1.21-6.94-16.52-43.79,14-32.8C278.15,400.45,278.32,389.86,262.72,395.33Z"/><path class="cls-10" d="M267.23,363.84c20-5.48,7.79-16.51,9.38-30.72-4.25,1.05-18.75-18.54-21.05-8.14Q248.09,352.27,267.23,363.84Z"/><path class="cls-11" d="M253.54,727q-2.07-19.42,12.18-35.37C273.23,687.62,222.49,686.46,253.54,727Z"/><path class="cls-12" d="M242.68,340.4c-11.28-4.59-11.42,40.52-7.41,41.31Q260,358.19,242.68,340.4Z"/><path class="cls-13" d="M528.12,208.57c-3.88-.2-7.73-.83-12.48-1.37l5.52,16.71C523.44,219.61,567.18,210.6,528.12,208.57Z"/><path class="cls-14" d="M256.85,731.72q-16.65,11.17,17.47,30.54C273.85,748.57,266.68,739.27,256.85,731.72Z"/><path class="cls-15" d="M503.43,102.47q.48-22.48-34.38,1.09Q470.76,122.91,503.43,102.47Z"/><path class="cls-16" d="M537.51,239.8a4,4,0,0,1,.54,1.8C555.38,247.79,534.75,235.45,537.51,239.8Z"/><path class="cls-17" d="M413.28,189.9c2.2,5.91,4.11,11,6.36,17Q433.05,188.43,413.28,189.9Z"/><path class="cls-18" d="M474.57,233.38,485,228.45l-10.42-6.27Z"/><path class="cls-19" d="M288.78,300.66Z"/><path class="cls-20" d="M290.6,299.33l0,0Z"/><path class="cls-21" d="M289.2,300.36l.44-.33Z"/><path class="cls-22" d="M293.87,296.93l-3.25,2.38Z"/><path class="cls-23" d="M289.64,300l1-.7Z"/><path class="cls-24" d="M288.78,300.66h0Z"/><path class="cls-25" d="M288.8,300.65l.4-.29Z"/><path class="cls-26" d="M565,442.12q-22.17,5.58-21.39,25.3C546.31,473.66,589.37,458.25,565,442.12Z"/></g></g></svg>