<svg xmlns="http://www.w3.org/2000/svg" xmlns:xlink="http://www.w3.org/1999/xlink" viewBox="0 0 1282.87 2057.59"><defs><style>.cls-1{fill:url(#Gradient_bez_nazwy_75);}.cls-2{fill:#fff;}.cls-3{font-size:277.37px;fill:#252525;font-family:Sailec, Sailec;}</style><linearGradient id="Gradient_bez_nazwy_75" x1="-78.62" y1="84.97" x2="1328.18" y2="1491.77" gradientUnits="userSpaceOnUse"><stop offset="0" stop-color="#90f9c4"/><stop offset="0.48" stop-color="#39f3bb"/><stop offset="1" stop-color="#28c76f"/></linearGradient></defs><title>Branch-Stable-readme</title><g id="Warstwa_2" data-name="Warstwa 2"><g id="colors"><path class="cls-1" d="M70.77,0H1212.1a70.77,70.77,0,0,1,70.77,70.77V1568.59a0,0,0,0,1,0,0H0a0,0,0,0,1,0,0V70.77A70.77,70.77,0,0,1,70.77,0Z"/><path class="cls-2" d="M0,1568.59H1282.87a0,0,0,0,1,0,0v449.48a39.52,39.52,0,0,1-39.52,39.52H39.52A39.52,39.52,0,0,1,0,2018.07V1568.59A0,0,0,0,1,0,1568.59Z"/><text class="cls-3" transform="translate(53.16 1939.17)">Stable</text></g></g></svg>