<svg xmlns="http://www.w3.org/2000/svg" xmlns:xlink="http://www.w3.org/1999/xlink" viewBox="0 0 1282.87 2057.59"><defs><style>.cls-1{fill:url(#Gradient_bez_nazwy_30);}.cls-2{fill:#fff;}.cls-3{font-size:277.37px;fill:#252525;font-family:Sailec, Sailec;}</style><linearGradient id="Gradient_bez_nazwy_30" x1="-81.42" y1="-64.24" x2="1278.39" y2="1562.07" gradientUnits="userSpaceOnUse"><stop offset="0" stop-color="#00ecbc"/><stop offset="1" stop-color="#007adf"/></linearGradient></defs><title>Branch-Master-readme</title><g id="Warstwa_2" data-name="Warstwa 2"><g id="colors"><path class="cls-1" d="M70.48,0H1212.39a70.48,70.48,0,0,1,70.48,70.48V1555.67a0,0,0,0,1,0,0H0a0,0,0,0,1,0,0V70.48A70.48,70.48,0,0,1,70.48,0Z"/><path class="cls-2" d="M0,1555.67H1282.87a0,0,0,0,1,0,0v461.89a40,40,0,0,1-40,40H40a40,40,0,0,1-40-40V1555.67A0,0,0,0,1,0,1555.67Z"/><text class="cls-3" transform="translate(53.16 1939.17)">Master</text></g></g></svg>