<svg xmlns="http://www.w3.org/2000/svg" xmlns:xlink="http://www.w3.org/1999/xlink" viewBox="0 0 1282.87 2057.59"><defs><style>.cls-1{fill:url(#Gradient_bez_nazwy_30);}.cls-2{fill:#fff;}.cls-3,.cls-4{font-size:160.37px;}.cls-3{fill:#adadad;}.cls-3,.cls-4,.cls-5{font-family:Sailec, Sailec;}.cls-4{fill:#007adf;}.cls-5{font-size:277.37px;fill:#252525;}.cls-6{fill:none;stroke:#fff;stroke-miterlimit:10;stroke-width:18.36px;}</style><linearGradient id="Gradient_bez_nazwy_30" x1="-6.29" y1="-112.85" x2="1212.15" y2="1344.39" gradientUnits="userSpaceOnUse"><stop offset="0" stop-color="#00ecbc"/><stop offset="1" stop-color="#007adf"/></linearGradient></defs><title>Branch-Master</title><g id="Warstwa_2" data-name="Warstwa 2"><g id="colors"><path class="cls-1" d="M64,0H1218.86a64,64,0,0,1,64,64V1282.87a0,0,0,0,1,0,0H0a0,0,0,0,1,0,0V64A64,64,0,0,1,64,0Z"/><path class="cls-2" d="M0,1280.18H1282.87a0,0,0,0,1,0,0v727.59a49.82,49.82,0,0,1-49.82,49.82H49.82A49.82,49.82,0,0,1,0,2007.76V1280.18a0,0,0,0,1,0,0Z"/><text class="cls-3" transform="translate(53.16 1471)">#00ecbc</text><text class="cls-4" transform="translate(53.16 1640.05)">#007adf</text><text class="cls-5" transform="translate(53.16 1939.17)">Master</text><path class="cls-2" d="M949.71,145.51c-1.23,0-1.85-.61-1.85-1.73v-9.62a1.69,1.69,0,0,1,1.85-1.85h30.85a1.69,1.69,0,0,1,1.85,1.85v9.62c0,1.12-.62,1.73-1.85,1.73Z"/><path class="cls-2" d="M1026.09,177.22a42.17,42.17,0,0,1-29.37-11.47,1.79,1.79,0,0,1,0-2.59l6.79-7.41c.74-.86,1.6-.74,2.59.13,6.29,4.93,12.71,7.52,20.11,7.52,10.49,0,16-6.54,16-16.9S1037.19,131,1026.33,131c-7.4,0-12,2-15.79,5.31a2.16,2.16,0,0,1-2.47.62L999.68,134a2,2,0,0,1-1.6-2.1l1.6-42.57a1.69,1.69,0,0,1,1.85-1.85h48.62a1.64,1.64,0,0,1,1.85,1.85v9.87a1.63,1.63,0,0,1-1.85,1.85h-36.53l-.61,20.49c4.07-2.47,8.76-3.83,15-3.83,17.52,0,28.75,10.36,28.75,28.75S1045.09,177.22,1026.09,177.22Z"/><path class="cls-2" d="M1099.87,177.22c-14.93,0-30.48-8.64-30.48-30.23V115.78c0-21.23,15.55-29.74,30.48-29.74s30.35,8.51,30.35,29.74V147C1130.22,168.58,1114.8,177.22,1099.87,177.22Zm0-13.94c7.4,0,15.92-3.33,15.92-15.79V116c0-12.71-8.52-16-15.92-16s-16,3.33-16,16v31.47C1083.83,160,1092.47,163.28,1099.87,163.28Z"/><path class="cls-2" d="M1152.43,176.36a8.62,8.62,0,0,1-9-9c0-5.43,3.58-9.13,9-9.13a9.07,9.07,0,1,1,0,18.14Z"/><path class="cls-2" d="M1185.74,175.74a1.64,1.64,0,0,1-1.85-1.85V104.8l-13.08,9c-.86.62-1.72.5-2.46-.61l-5.06-8.15a1.84,1.84,0,0,1,.49-2.59l21.1-14.31a3.4,3.4,0,0,1,2.22-.62h9.5c1.11,0,1.73.62,1.73,1.85v84.52c0,1.23-.62,1.85-1.73,1.85Z"/><path class="cls-2" d="M1231.89,123.3c-10.86,0-18.76-7-18.76-18.75S1221,86,1231.89,86c10.61,0,18.63,6.91,18.63,18.51S1242.5,123.3,1231.89,123.3Zm0-9c5.18,0,9.13-3.09,9.13-9.63,0-6.29-4-9.62-9.13-9.62s-9.25,3.33-9.25,9.62C1222.64,111.21,1226.71,114.3,1231.89,114.3Z"/><polyline class="cls-6" points="992.02 36.94 746.67 282.3 1079.88 282.3"/><path class="cls-6" d="M870.13,282.3A123.07,123.07,0,0,0,834,195l-87.3,87.3Z"/></g></g></svg>