<svg xmlns="http://www.w3.org/2000/svg" xmlns:xlink="http://www.w3.org/1999/xlink" viewBox="0 0 1282.87 2057.59"><defs><style>.cls-1{fill:url(#Gradient_bez_nazwy_75);}.cls-2{fill:#fff;}.cls-3,.cls-6,.cls-9{font-size:135.32px;}.cls-3{fill:#adadad;}.cls-3,.cls-6,.cls-8,.cls-9{font-family:Sailec, Sailec;}.cls-4,.cls-9{fill:#777;}.cls-4{letter-spacing:0em;}.cls-5{letter-spacing:0em;}.cls-6{fill:#28c76f;}.cls-7{letter-spacing:-0.06em;}.cls-8{font-size:277.37px;fill:#252525;}.cls-10{letter-spacing:-0.01em;}.cls-11{fill:none;stroke:#fff;stroke-miterlimit:10;stroke-width:18.36px;}</style><linearGradient id="Gradient_bez_nazwy_75" x1="-6.42" y1="12.32" x2="1259.32" y2="1278.07" gradientUnits="userSpaceOnUse"><stop offset="0" stop-color="#90f9c4"/><stop offset="0.48" stop-color="#39f3bb"/><stop offset="1" stop-color="#28c76f"/></linearGradient></defs><title>Branch-Stable</title><g id="Warstwa_2" data-name="Warstwa 2"><g id="colors"><path class="cls-1" d="M64,0H1218.86a64,64,0,0,1,64,64V1282.87a0,0,0,0,1,0,0H0a0,0,0,0,1,0,0V64A64,64,0,0,1,64,0Z"/><path class="cls-2" d="M0,1280.18H1282.87a0,0,0,0,1,0,0v727.59a49.82,49.82,0,0,1-49.82,49.82H49.82A49.82,49.82,0,0,1,0,2007.76V1280.18a0,0,0,0,1,0,0Z"/><text class="cls-3" transform="translate(44.16 1452.1)">#<tspan class="cls-4" x="85.92" y="0">90F9C4</tspan><tspan class="cls-5" x="602.15" y="0">, 0%</tspan></text><text class="cls-6" transform="translate(44.16 1688.88)">#28C76<tspan class="cls-7" x="501.88" y="0">F</tspan><tspan x="572.65" y="0">, 100%</tspan></text><text class="cls-8" transform="translate(53.16 1939.17)">Stable</text><text class="cls-9" transform="translate(44.16 1569.59)">#39F3B<tspan class="cls-10" x="488.49" y="0">B</tspan><tspan x="580.5" y="0">, 48%</tspan></text><polyline class="cls-11" points="1068.9 49.95 823.71 295.14 1156.7 295.14"/><path class="cls-11" d="M947.09,295.14A123,123,0,0,0,911,207.9l-87.24,87.24Z"/><path class="cls-2" d="M1026.62,159.94c-1.23,0-1.85-.61-1.85-1.72V148.6a1.69,1.69,0,0,1,1.85-1.85h30.83a1.69,1.69,0,0,1,1.85,1.85v9.62c0,1.11-.62,1.72-1.85,1.72Z"/><path class="cls-2" d="M1112.68,190.15a1.63,1.63,0,0,1-1.84-1.85V172H1072a1.69,1.69,0,0,1-1.85-1.85v-8a3.82,3.82,0,0,1,.61-2.22L1101,103.35a2.2,2.2,0,0,1,2.1-1.36h12.45c1.48,0,2,1,1.36,2.22l-29.1,54.62h23.06l.24-17.13a1.72,1.72,0,0,1,1.85-1.73h10.48c1.23,0,1.85.62,1.85,1.73v17.13h7.52c1.24,0,1.85.62,1.85,1.73v9.62a1.63,1.63,0,0,1-1.85,1.85h-7.52V188.3a1.63,1.63,0,0,1-1.85,1.85Z"/><path class="cls-2" d="M1174,191.63a42.16,42.16,0,0,1-29.35-11.46,1.79,1.79,0,0,1,0-2.59l6.78-7.4c.74-.87,1.6-.74,2.59.12,6.29,4.93,12.7,7.52,20.1,7.52,10.48,0,16-6.53,16-16.89s-5.06-15.54-15.91-15.54c-7.4,0-12,2-15.78,5.31a2.15,2.15,0,0,1-2.47.61l-8.38-2.83a1.94,1.94,0,0,1-1.6-2.1l1.6-42.54a1.69,1.69,0,0,1,1.85-1.85H1198a1.64,1.64,0,0,1,1.85,1.85v9.87a1.64,1.64,0,0,1-1.85,1.85h-36.5L1160.9,136c4.06-2.46,8.75-3.82,15-3.82,17.51,0,28.73,10.36,28.73,28.73S1193,191.63,1174,191.63Z"/><path class="cls-2" d="M1233.27,137.75c-10.85,0-18.74-7-18.74-18.74s7.89-18.5,18.74-18.5c10.61,0,18.62,6.91,18.62,18.5S1243.88,137.75,1233.27,137.75Zm0-9c5.18,0,9.13-3.08,9.13-9.62,0-6.29-4-9.62-9.13-9.62s-9.25,3.33-9.25,9.62C1224,125.67,1228.09,128.75,1233.27,128.75Z"/></g></g></svg>