<svg xmlns="http://www.w3.org/2000/svg" xmlns:xlink="http://www.w3.org/1999/xlink" viewBox="0 0 4202.23 2070.51"><defs><style>.cls-1{fill:url(#Gradient_bez_nazwy_13);}.cls-2{fill:#fff;}.cls-14,.cls-3,.cls-4{font-size:160.37px;}.cls-3,.cls-8{fill:#adadad;}.cls-11,.cls-14,.cls-15,.cls-3,.cls-4,.cls-5,.cls-8{font-family:Sailec, Sailec;}.cls-4{fill:#fe5196;}.cls-5{font-size:277.37px;fill:#252525;}.cls-6{letter-spacing:-0.02em;}.cls-7{fill:url(#Gradient_bez_nazwy_75);}.cls-11,.cls-15,.cls-8{font-size:135.32px;}.cls-15,.cls-9{fill:#777;}.cls-9{letter-spacing:0em;}.cls-10{letter-spacing:0em;}.cls-11{fill:#28c76f;}.cls-12{letter-spacing:-0.06em;}.cls-13{fill:url(#Gradient_bez_nazwy_30);}.cls-14{fill:#007adf;}.cls-16{letter-spacing:-0.01em;}.cls-17{fill:none;stroke:#fff;stroke-miterlimit:10;stroke-width:18.36px;}</style><linearGradient id="Gradient_bez_nazwy_13" x1="2723.57" y1="1289.29" x2="1464.46" y2="16.92" gradientUnits="userSpaceOnUse"><stop offset="0" stop-color="#f77062"/><stop offset="1" stop-color="#fe5196"/></linearGradient><linearGradient id="Gradient_bez_nazwy_75" x1="-6.42" y1="12.32" x2="1259.32" y2="1278.07" gradientUnits="userSpaceOnUse"><stop offset="0" stop-color="#90f9c4"/><stop offset="0.48" stop-color="#39f3bb"/><stop offset="1" stop-color="#28c76f"/></linearGradient><linearGradient id="Gradient_bez_nazwy_30" x1="2913.07" y1="-99.92" x2="4131.51" y2="1357.31" gradientUnits="userSpaceOnUse"><stop offset="0" stop-color="#00ecbc"/><stop offset="1" stop-color="#007adf"/></linearGradient></defs><title>Branches-List</title><g id="Warstwa_2" data-name="Warstwa 2"><g id="colors"><path class="cls-1" d="M1523.68,0H2678.54a64,64,0,0,1,64,64V1282.87a0,0,0,0,1,0,0H1459.68a0,0,0,0,1,0,0V64A64,64,0,0,1,1523.68,0Z"/><path class="cls-2" d="M1459.68,1280.18H2742.55a0,0,0,0,1,0,0v727.59a49.82,49.82,0,0,1-49.82,49.82H1509.5a49.82,49.82,0,0,1-49.82-49.82V1280.18A0,0,0,0,1,1459.68,1280.18Z"/><text class="cls-3" transform="translate(1512.84 1471)">#f77062</text><text class="cls-4" transform="translate(1512.84 1640.05)">#fe5196</text><text class="cls-5" transform="translate(1512.84 1939.17)">D<tspan class="cls-6" x="221.62" y="0">e</tspan><tspan x="381.38" y="0">v</tspan></text><path class="cls-7" d="M64,0H1218.86a64,64,0,0,1,64,64V1282.87a0,0,0,0,1,0,0H0a0,0,0,0,1,0,0V64A64,64,0,0,1,64,0Z"/><path class="cls-2" d="M0,1280.18H1282.87a0,0,0,0,1,0,0v727.59a49.82,49.82,0,0,1-49.82,49.82H49.82A49.82,49.82,0,0,1,0,2007.76V1280.18a0,0,0,0,1,0,0Z"/><text class="cls-8" transform="translate(44.16 1452.1)">#<tspan class="cls-9" x="85.92" y="0">90F9C4</tspan><tspan class="cls-10" x="602.15" y="0">, 0%</tspan></text><text class="cls-11" transform="translate(44.16 1688.88)">#28C76<tspan class="cls-12" x="501.88" y="0">F</tspan><tspan x="572.65" y="0">, 100%</tspan></text><text class="cls-5" transform="translate(53.16 1939.17)">Stable</text><path class="cls-13" d="M2983.36,12.92H4138.22a64,64,0,0,1,64,64V1295.79a0,0,0,0,1,0,0H2919.36a0,0,0,0,1,0,0V76.93a64,64,0,0,1,64-64Z"/><path class="cls-2" d="M2919.36,1293.1H4202.23a0,0,0,0,1,0,0v727.59a49.82,49.82,0,0,1-49.82,49.82H2969.18a49.82,49.82,0,0,1-49.82-49.82V1293.1A0,0,0,0,1,2919.36,1293.1Z"/><text class="cls-3" transform="translate(2972.52 1483.92)">#00ecbc</text><text class="cls-14" transform="translate(2972.52 1652.97)">#007adf</text><text class="cls-5" transform="translate(2972.52 1952.09)">Master</text><text class="cls-15" transform="translate(44.16 1569.59)">#39F3B<tspan class="cls-16" x="488.49" y="0">B</tspan><tspan x="580.5" y="0">, 48%</tspan></text><path class="cls-2" d="M3869.07,158.44c-1.23,0-1.85-.62-1.85-1.73v-9.63a1.69,1.69,0,0,1,1.85-1.85h30.85a1.69,1.69,0,0,1,1.85,1.85v9.63c0,1.11-.62,1.73-1.85,1.73Z"/><path class="cls-2" d="M3945.45,190.15a42.18,42.18,0,0,1-29.37-11.48,1.79,1.79,0,0,1,0-2.59l6.79-7.4c.74-.87,1.6-.74,2.59.12,6.29,4.94,12.71,7.53,20.11,7.53,10.49,0,16-6.54,16-16.91s-5.06-15.54-15.92-15.54c-7.4,0-12,2-15.79,5.3a2.16,2.16,0,0,1-2.47.62L3919,147a1.93,1.93,0,0,1-1.6-2.1l1.6-42.56a1.68,1.68,0,0,1,1.85-1.85h48.62a1.63,1.63,0,0,1,1.85,1.85v9.87a1.64,1.64,0,0,1-1.85,1.85H3933l-.61,20.48c4.07-2.47,8.76-3.83,15.05-3.83,17.52,0,28.75,10.37,28.75,28.75S3964.45,190.15,3945.45,190.15Z"/><path class="cls-2" d="M4019.23,190.15c-14.93,0-30.48-8.64-30.48-30.23V128.7c0-21.22,15.55-29.74,30.48-29.74s30.35,8.52,30.35,29.74v31.22C4049.58,181.51,4034.16,190.15,4019.23,190.15Zm0-14c7.4,0,15.92-3.33,15.92-15.79V129c0-12.71-8.52-16-15.92-16s-16,3.33-16,16v31.46C4003.19,172.87,4011.83,176.2,4019.23,176.2Z"/><path class="cls-2" d="M4071.79,189.28a8.61,8.61,0,0,1-9-9c0-5.42,3.58-9.13,9-9.13a9.07,9.07,0,1,1,0,18.14Z"/><path class="cls-2" d="M4105.1,188.66a1.63,1.63,0,0,1-1.85-1.85V117.72l-13.08,9c-.86.61-1.72.49-2.46-.62l-5.06-8.14a1.85,1.85,0,0,1,.49-2.6l21.1-14.31a3.39,3.39,0,0,1,2.22-.61h9.5c1.11,0,1.73.61,1.73,1.85v84.51c0,1.24-.62,1.85-1.73,1.85Z"/><path class="cls-2" d="M4151.25,136.23c-10.86,0-18.76-7-18.76-18.76S4140.39,99,4151.25,99c10.61,0,18.63,6.91,18.63,18.51S4161.86,136.23,4151.25,136.23Zm0-9c5.18,0,9.13-3.09,9.13-9.62,0-6.3-3.95-9.63-9.13-9.63s-9.26,3.33-9.26,9.63C4142,124.13,4146.07,127.22,4151.25,127.22Z"/><polyline class="cls-17" points="3911.38 49.87 3666.03 295.22 3999.24 295.22"/><path class="cls-17" d="M3789.49,295.22a123.08,123.08,0,0,0-36.16-87.3l-87.3,87.3Z"/><path class="cls-2" d="M2413.12,190.59a1.63,1.63,0,0,1-1.85-1.84v-69l-13.06,9c-.86.62-1.72.5-2.46-.61L2390.7,120a1.84,1.84,0,0,1,.49-2.59l21.07-14.29a3.35,3.35,0,0,1,2.21-.62H2424c1.11,0,1.72.62,1.72,1.85v84.39c0,1.23-.61,1.84-1.72,1.84Z"/><path class="cls-2" d="M2469.66,192.07c-13.79,0-22.54-5-30-11.58a1.78,1.78,0,0,1,0-2.58l6-7a1.79,1.79,0,0,1,2.59,0c6,4.32,11.46,7.64,21.43,7.64,9.37,0,16-5.67,16-16.38,0-9.86-6.16-14.91-17.37-14.91a40.46,40.46,0,0,0-7.76.86,1.91,1.91,0,0,1-2.22-1.11l-2.34-5a2.31,2.31,0,0,1,.49-2.58l12.07-13.18c2.35-2.47,8.14-8.5,10.48-10.35h-33.39c-1.11,0-1.72-.62-1.72-1.85v-9.61c0-1.23.61-1.85,1.72-1.85h50.26c1.11,0,1.73.62,1.73,1.85v7.15a3.53,3.53,0,0,1-.86,2.21l-22.3,23.66.12.24c13.06-.37,25.75,8.63,25.75,24.89C2500.34,180.86,2487.28,192.07,2469.66,192.07Z"/><path class="cls-2" d="M2551.46,190.59a1.63,1.63,0,0,1-1.85-1.84V172.49h-38.8a1.69,1.69,0,0,1-1.85-1.85v-8a3.76,3.76,0,0,1,.62-2.22l30.18-56.54a2.19,2.19,0,0,1,2.09-1.36h12.44c1.48,0,2,1,1.36,2.22l-29.07,54.57h23l.25-17.12a1.71,1.71,0,0,1,1.85-1.72h10.47c1.23,0,1.85.61,1.85,1.72V159.3h7.51c1.23,0,1.85.62,1.85,1.73v9.61a1.64,1.64,0,0,1-1.85,1.85H2564v16.26a1.63,1.63,0,0,1-1.85,1.84Z"/><path class="cls-2" d="M2591.37,191.21a8.6,8.6,0,0,1-9-9c0-5.42,3.57-9.12,9-9.12a9.06,9.06,0,1,1,0,18.11Z"/><path class="cls-2" d="M2616,190.59c-1.23,0-1.85-1-1.23-2.21l34.12-71.95h-39.79a1.62,1.62,0,0,1-1.84-1.84V104.36a1.63,1.63,0,0,1,1.84-1.85h56.42a1.69,1.69,0,0,1,1.85,1.85v6.53a4.62,4.62,0,0,1-.61,2.22l-36.1,76.13a2,2,0,0,1-2.09,1.35Z"/><path class="cls-2" d="M2693.38,138.24c-10.84,0-18.73-7-18.73-18.73s7.89-18.48,18.73-18.48c10.59,0,18.6,6.9,18.6,18.48S2704,138.24,2693.38,138.24Zm0-9c5.17,0,9.11-3.08,9.11-9.61,0-6.29-3.94-9.61-9.11-9.61s-9.24,3.32-9.24,9.61C2684.14,126.17,2688.2,129.25,2693.38,129.25Z"/><polyline class="cls-17" points="2438.45 50.06 2193.48 295.03 2526.16 295.03"/><path class="cls-17" d="M2316.74,295a122.84,122.84,0,0,0-36.1-87.16L2193.48,295Z"/><polyline class="cls-17" points="1068.9 49.95 823.71 295.14 1156.7 295.14"/><path class="cls-17" d="M947.09,295.14A123,123,0,0,0,911,207.9l-87.24,87.24Z"/><path class="cls-2" d="M1026.62,159.94c-1.23,0-1.85-.61-1.85-1.72V148.6a1.69,1.69,0,0,1,1.85-1.85h30.83a1.69,1.69,0,0,1,1.85,1.85v9.62c0,1.11-.62,1.72-1.85,1.72Z"/><path class="cls-2" d="M1112.68,190.15a1.63,1.63,0,0,1-1.84-1.85V172H1072a1.69,1.69,0,0,1-1.85-1.85v-8a3.82,3.82,0,0,1,.61-2.22L1101,103.35a2.2,2.2,0,0,1,2.1-1.36h12.45c1.48,0,2,1,1.36,2.22l-29.1,54.62h23.06l.24-17.13a1.72,1.72,0,0,1,1.85-1.73h10.48c1.23,0,1.85.62,1.85,1.73v17.13h7.52c1.24,0,1.85.62,1.85,1.73v9.62a1.63,1.63,0,0,1-1.85,1.85h-7.52V188.3a1.63,1.63,0,0,1-1.85,1.85Z"/><path class="cls-2" d="M1174,191.63a42.16,42.16,0,0,1-29.35-11.46,1.79,1.79,0,0,1,0-2.59l6.78-7.4c.74-.87,1.6-.74,2.59.12,6.29,4.93,12.7,7.52,20.1,7.52,10.48,0,16-6.53,16-16.89s-5.06-15.54-15.91-15.54c-7.4,0-12,2-15.78,5.31a2.15,2.15,0,0,1-2.47.61l-8.38-2.83a1.94,1.94,0,0,1-1.6-2.1l1.6-42.54a1.69,1.69,0,0,1,1.85-1.85H1198a1.64,1.64,0,0,1,1.85,1.85v9.87a1.64,1.64,0,0,1-1.85,1.85h-36.5L1160.9,136c4.06-2.46,8.75-3.82,15-3.82,17.51,0,28.73,10.36,28.73,28.73S1193,191.63,1174,191.63Z"/><path class="cls-2" d="M1233.27,137.75c-10.85,0-18.74-7-18.74-18.74s7.89-18.5,18.74-18.5c10.61,0,18.62,6.91,18.62,18.5S1243.88,137.75,1233.27,137.75Zm0-9c5.18,0,9.13-3.08,9.13-9.62,0-6.29-4-9.62-9.13-9.62s-9.25,3.33-9.25,9.62C1224,125.67,1228.09,128.75,1233.27,128.75Z"/></g></g></svg>