<svg xmlns="http://www.w3.org/2000/svg" xmlns:xlink="http://www.w3.org/1999/xlink" viewBox="0 0 4088.8 622.63"><defs><style>.cls-1{fill:url(#Gradient_bez_nazwy_15);}.cls-2{fill:url(#Gradient_bez_nazwy_2);}.cls-3{fill:url(#Gradient_bez_nazwy_2-2);}.cls-4{fill:url(#Gradient_bez_nazwy_2-3);}.cls-5{fill:url(#Gradient_bez_nazwy_2-4);}.cls-6{fill:url(#Gradient_bez_nazwy_2-5);}.cls-7{fill:url(#Gradient_bez_nazwy_2-6);}.cls-8{fill:url(#Gradient_bez_nazwy_2-7);}.cls-9{fill:url(#Gradient_bez_nazwy_2-8);}.cls-10{fill:url(#Gradient_bez_nazwy_2-9);}.cls-11{fill:url(#Gradient_bez_nazwy_2-10);}.cls-12{fill:url(#Gradient_bez_nazwy_2-11);}.cls-13{fill:url(#Gradient_bez_nazwy_2-12);}.cls-14{fill:url(#Gradient_bez_nazwy_2-13);}.cls-15{fill:url(#Gradient_bez_nazwy_2-14);}.cls-16{fill:url(#Gradient_bez_nazwy_2-15);}.cls-17{fill:url(#Gradient_bez_nazwy_2-16);}.cls-18{fill:url(#Gradient_bez_nazwy_2-17);}.cls-19{fill:url(#Gradient_bez_nazwy_2-18);}.cls-20{fill:url(#Gradient_bez_nazwy_2-19);}</style><linearGradient id="Gradient_bez_nazwy_15" x1="2044.4" y1="36.98" x2="2044.4" y2="622.63" gradientUnits="userSpaceOnUse"><stop offset="0" stop-color="#60f"/><stop offset="1" stop-color="#15a0ff"/></linearGradient><linearGradient id="Gradient_bez_nazwy_2" x1="50.2" y1="311.32" x2="559.16" y2="311.32" gradientUnits="userSpaceOnUse"><stop offset="0" stop-color="#fff"/><stop offset="1" stop-color="#fff" stop-opacity="0.78"/></linearGradient><linearGradient id="Gradient_bez_nazwy_2-2" x1="118.01" y1="311.32" x2="267.45" y2="311.32" xlink:href="#Gradient_bez_nazwy_2"/><linearGradient id="Gradient_bez_nazwy_2-3" x1="299.36" y1="311.32" x2="333.96" y2="311.32" xlink:href="#Gradient_bez_nazwy_2"/><linearGradient id="Gradient_bez_nazwy_2-4" x1="356.14" y1="311.32" x2="491.36" y2="311.32" xlink:href="#Gradient_bez_nazwy_2"/><linearGradient id="Gradient_bez_nazwy_2-5" x1="624.47" y1="361.25" x2="845.49" y2="361.25" xlink:href="#Gradient_bez_nazwy_2"/><linearGradient id="Gradient_bez_nazwy_2-6" x1="856.38" y1="313.92" x2="1088.28" y2="313.92" xlink:href="#Gradient_bez_nazwy_2"/><linearGradient id="Gradient_bez_nazwy_2-7" x1="1159.26" y1="311.32" x2="1365.14" y2="311.32" xlink:href="#Gradient_bez_nazwy_2"/><linearGradient id="Gradient_bez_nazwy_2-8" x1="1402.99" y1="311.32" x2="1634.42" y2="311.32" xlink:href="#Gradient_bez_nazwy_2"/><linearGradient id="Gradient_bez_nazwy_2-9" x1="1677.48" y1="311.32" x2="1912.7" y2="311.32" xlink:href="#Gradient_bez_nazwy_2"/><linearGradient id="Gradient_bez_nazwy_2-10" x1="2063.2" y1="329.06" x2="2206.13" y2="329.06" xlink:href="#Gradient_bez_nazwy_2"/><linearGradient id="Gradient_bez_nazwy_2-11" x1="2244.46" y1="361.01" x2="2441.82" y2="361.01" xlink:href="#Gradient_bez_nazwy_2"/><linearGradient id="Gradient_bez_nazwy_2-12" x1="2504.28" y1="311.32" x2="2710.15" y2="311.32" xlink:href="#Gradient_bez_nazwy_2"/><linearGradient id="Gradient_bez_nazwy_2-13" x1="2752.27" y1="309.19" x2="2820.42" y2="309.19" xlink:href="#Gradient_bez_nazwy_2"/><linearGradient id="Gradient_bez_nazwy_2-14" x1="2867.74" y1="313.92" x2="3099.65" y2="313.92" xlink:href="#Gradient_bez_nazwy_2"/><linearGradient id="Gradient_bez_nazwy_2-15" x1="3153.6" y1="361.01" x2="3367.99" y2="361.01" xlink:href="#Gradient_bez_nazwy_2"/><linearGradient id="Gradient_bez_nazwy_2-16" x1="3422.89" y1="311.32" x2="3476.84" y2="311.32" xlink:href="#Gradient_bez_nazwy_2"/><linearGradient id="Gradient_bez_nazwy_2-17" x1="3520.85" y1="311.32" x2="3668.99" y2="311.32" xlink:href="#Gradient_bez_nazwy_2"/><linearGradient id="Gradient_bez_nazwy_2-18" x1="3703.53" y1="309.19" x2="3771.68" y2="309.19" xlink:href="#Gradient_bez_nazwy_2"/><linearGradient id="Gradient_bez_nazwy_2-19" x1="3833.67" y1="358.41" x2="4038.6" y2="358.41" xlink:href="#Gradient_bez_nazwy_2"/></defs><title>mitlicense</title><g id="Warstwa_2" data-name="Warstwa 2"><g id="FINAL"><rect class="cls-1" width="4088.8" height="622.63" rx="140.53" ry="140.53"/><path class="cls-2" d="M484.61,131.87a253.2,253.2,0,0,0-179.93-74.3h0a253.75,253.75,0,1,0,0,507.5h0A254.12,254.12,0,0,0,559.16,311.32h0A251.71,251.71,0,0,0,484.61,131.87Zm43.87,179.45c0,123-100.4,223.06-223.8,223.06S80.89,434.31,80.89,311.31,181.28,88.25,304.68,88.25s223.8,100.07,223.8,223.06Z"/><polygon class="cls-3" points="192.68 288.7 148.13 223.79 118.01 223.79 118.01 398.84 152.61 398.84 152.61 289.58 190.09 344.46 195.36 344.46 232.84 289.58 232.84 398.84 267.45 398.84 267.45 223.79 237.32 223.79 192.68 288.7"/><rect class="cls-4" x="299.36" y="223.8" width="34.6" height="175.04"/><polygon class="cls-5" points="356.14 255.87 406.45 255.87 406.45 398.84 441.05 398.84 441.05 255.87 491.36 255.87 491.36 223.79 356.14 223.79 356.14 255.87"/><path class="cls-6" d="M691.68,245.29l43.07,69.1,43.54-69.1h62L765,357.93,845.49,477.2h-62l-48.74-75.73L686.47,477.2h-62l80.46-119.27L629.68,245.29Z"/><path class="cls-7" d="M888.09,448.09q-31.71-34.3-31.71-86.84t31.71-87.09q31.7-34.53,81.4-34.55,38.34,0,64.84,22.72V145.43h54V477.2h-53V456.37q-25.1,26-65.79,26Q919.8,482.4,888.09,448.09Zm131.1-34.31q16.08-21.3,16.09-52.53t-16.09-52.54q-16.1-21.3-45.91-21.3-29.35,0-45.67,21.3t-16.33,52.54q0,31.23,16.33,52.53t45.67,21.3Q1003.1,435.08,1019.19,413.78Z"/><path class="cls-8" d="M1159.26,477.2V145.43h54V335.22l80.45-89.93h67.21l-90.4,100.34,94.66,131.57h-61.53L1234.51,383l-21.29,24.13V477.2Z"/><path class="cls-9" d="M1403,254.76V145.43h231.43v47.33q-100.8,105.06-114.53,265.51l-1.42,18.93h-57.26l1.42-18.46q14.19-156.64,100.8-262.19h-106v58.21Z"/><path class="cls-10" d="M1795.33,482.4q-52.53,0-85.19-26.5t-32.66-71q0-53.48,46.86-78.56-15.61-9-27.21-27t-11.6-44.49q0-42.58,30.76-68.62t79-26q48.27,0,78.8,26t30.53,68.62q0,26.52-11.6,44.49t-27.21,27q46.85,25.08,46.85,78.56,0,44.49-32.65,71T1795.33,482.4Zm0-149.08q-26.5,0-43.78,13.73t-17.27,36q0,23.19,17.51,35.73t43.54,12.54q26,0,43.3-12.54T1855.91,383q0-23.67-17.28-36.68T1795.33,333.32Zm0-142q-21.3,0-37.15,11.6t-15.86,34.31q0,20.36,14.2,32.42t38.81,12.07q24.14,0,38.34-12.07t14.19-32.42q0-22.73-15.85-34.31T1795.33,191.34Z"/><path class="cls-11" d="M2177.26,477.67q-45,0-62.47-18.69t-17.51-63.66V293.57H2063.2V245.29h34.08V180.45h53.48v64.84h55.37v48.28h-55.37v93.71q0,25.08,7.57,33.6t30.29,8.52l17.51-.95v48.28Q2195.71,477.66,2177.26,477.67Z"/><path class="cls-12" d="M2322.55,482.4q-33.14,0-55.61-19.16t-22.48-51.35q0-37.86,27-57.74T2341,334.27a147.88,147.88,0,0,1,46.85,8V326.7q0-17.51-13-27.93t-32.42-10.41q-36.45,0-54.9,33.6l-36.44-34.07a86.39,86.39,0,0,1,38.33-36,119.88,119.88,0,0,1,53.48-12.31q45,0,71.94,22.25t27,65.31v150h-53v-18Q2362.3,482.42,2322.55,482.4Zm-24.14-74.3a24.2,24.2,0,0,0,9,19.4q9,7.59,26,7.58,33.6,0,54.42-19.88V388.7q-25.08-9.46-48.27-9.47-18.93,0-30.05,7.57T2298.41,408.1Z"/><path class="cls-13" d="M2504.28,477.2V145.43h53.95V335.22l80.46-89.93h67.2L2615.5,345.63l94.65,131.57h-61.52L2579.53,383l-21.3,24.13V477.2Z"/><path class="cls-14" d="M2762.2,198.91a32.86,32.86,0,0,1-9.93-24.13,32.1,32.1,0,0,1,9.93-23.9,34.86,34.86,0,0,1,48.28,0,32.07,32.07,0,0,1,9.94,23.9,34.14,34.14,0,0,1-58.22,24.13Zm-3.31,278.29V245.29h54V477.2Z"/><path class="cls-15" d="M2899.45,448.09q-31.71-34.3-31.71-86.84t31.71-87.09q31.71-34.53,81.41-34.55,38.32,0,64.84,22.72V145.43h54V477.2h-53V456.37q-25.09,26-65.78,26Q2931.17,482.4,2899.45,448.09Zm131.1-34.31q16.08-21.3,16.09-52.53t-16.09-52.54q-16.1-21.3-45.91-21.3-29.34,0-45.67,21.3t-16.33,52.54q0,31.23,16.33,52.53t45.67,21.3Q3014.46,435.08,3030.55,413.78Z"/><path class="cls-16" d="M3367.52,377.34H3209q1.89,26,18.46,41.17T3270,433.66q37.38,0,59.64-32.66l36.44,34.08q-36.92,47.32-96.08,47.32-52.07,0-84.24-33.36t-32.18-86.37q0-52.07,29.58-87.56t78.8-35.5q27,0,48,10.18t33.37,27.45a128.31,128.31,0,0,1,18.46,37.86,150.89,150.89,0,0,1,6.15,43.31Zm-105.07-88.51q-21.3,0-34.08,13.26a63.15,63.15,0,0,0-16.56,32.18h98.91a49.83,49.83,0,0,0-12.06-31.71Q3287.05,288.84,3262.45,288.83Z"/><path class="cls-17" d="M3422.89,477.2V145.43h54V477.2Z"/><path class="cls-18" d="M3648.16,145.43l20.83.48V195.6q-7.11-.47-12.31-.47-25.09,0-36.91,11.12t-11.84,36.2v2.84h55.85v48.28h-55.85V477.2h-53V293.57h-34.08V245.29h34.08V233.46Q3554.93,145.44,3648.16,145.43Z"/><path class="cls-19" d="M3713.47,198.91a32.83,32.83,0,0,1-9.94-24.13,32.07,32.07,0,0,1,9.94-23.9,34.85,34.85,0,0,1,48.27,0,32.07,32.07,0,0,1,9.94,23.9,34.13,34.13,0,0,1-58.21,24.13Zm-3.31,278.29V245.29h54V477.2Z"/><path class="cls-20" d="M3887.63,348.94V477.2h-54V245.29h53v18.93q21.77-24.6,60.11-24.61,43,0,67.44,27t24.37,75.72V477.2h-53.95V342.31q0-24.6-12.07-39.28t-33.84-14.67q-24.61,0-37.86,16.33T3887.63,348.94Z"/></g></g></svg>