<svg xmlns="http://www.w3.org/2000/svg" xmlns:xlink="http://www.w3.org/1999/xlink" viewBox="0 0 605.2 600.05"><defs><style>.cls-1{fill:url(#Nowa_próbka_gradientu_1);}.cls-2{fill:url(#Nowa_próbka_gradientu_1-2);}.cls-3{fill:url(#Nowa_próbka_gradientu_1-3);}.cls-4{fill:url(#Nowa_próbka_gradientu_1-4);}.cls-5{fill:url(#Nowa_próbka_gradientu_1-5);}.cls-6{fill:url(#Nowa_próbka_gradientu_1-6);}.cls-7{fill:url(#Nowa_próbka_gradientu_1-7);}.cls-8{fill:url(#Nowa_próbka_gradientu_1-8);}.cls-9{fill:url(#Nowa_próbka_gradientu_1-9);}.cls-10{fill:url(#Nowa_próbka_gradientu_1-10);}.cls-11{fill:url(#Nowa_próbka_gradientu_1-11);}.cls-12{fill:url(#Nowa_próbka_gradientu_1-12);}.cls-13{fill:url(#Nowa_próbka_gradientu_1-13);}.cls-14{fill:url(#Nowa_próbka_gradientu_1-14);}.cls-15{fill:url(#Nowa_próbka_gradientu_1-15);}.cls-16{fill:url(#Nowa_próbka_gradientu_1-16);}.cls-17{fill:url(#Nowa_próbka_gradientu_1-17);}.cls-18{fill:url(#Nowa_próbka_gradientu_1-18);}.cls-19{fill:url(#Nowa_próbka_gradientu_1-19);}.cls-20{fill:url(#Nowa_próbka_gradientu_1-20);}.cls-21{fill:url(#Nowa_próbka_gradientu_1-21);}.cls-22{fill:url(#Nowa_próbka_gradientu_1-22);}.cls-23{fill:url(#Nowa_próbka_gradientu_1-23);}.cls-24{fill:url(#Nowa_próbka_gradientu_1-24);}.cls-25{fill:url(#Nowa_próbka_gradientu_1-25);}.cls-26{fill:#fff;}</style><linearGradient id="Nowa_próbka_gradientu_1" x1="243" y1="45.86" x2="246.75" y2="45.86" gradientUnits="userSpaceOnUse"><stop offset="0" stop-color="#2afadf"/><stop offset="1" stop-color="#4c83ff"/></linearGradient><linearGradient id="Nowa_próbka_gradientu_1-2" x1="221.27" y1="32.9" x2="296.32" y2="32.9" xlink:href="#Nowa_próbka_gradientu_1"/><linearGradient id="Nowa_próbka_gradientu_1-3" x1="289.63" y1="20.5" x2="290.14" y2="20.5" xlink:href="#Nowa_próbka_gradientu_1"/><linearGradient id="Nowa_próbka_gradientu_1-4" x1="292.43" y1="27.57" x2="301.11" y2="27.57" xlink:href="#Nowa_próbka_gradientu_1"/><linearGradient id="Nowa_próbka_gradientu_1-5" x1="296.58" y1="266.77" x2="299.95" y2="266.77" xlink:href="#Nowa_próbka_gradientu_1"/><linearGradient id="Nowa_próbka_gradientu_1-6" x1="213.67" y1="234.07" x2="446.14" y2="234.07" xlink:href="#Nowa_próbka_gradientu_1"/><linearGradient id="Nowa_próbka_gradientu_1-7" x1="325.16" y1="256.53" x2="339.59" y2="256.53" xlink:href="#Nowa_próbka_gradientu_1"/><linearGradient id="Nowa_próbka_gradientu_1-8" x1="166.85" y1="182.74" x2="184.69" y2="182.74" xlink:href="#Nowa_próbka_gradientu_1"/><linearGradient id="Nowa_próbka_gradientu_1-9" x1="170.53" y1="139.94" x2="184.67" y2="139.94" xlink:href="#Nowa_próbka_gradientu_1"/><linearGradient id="Nowa_próbka_gradientu_1-10" x1="164.91" y1="343.42" x2="177.77" y2="343.42" xlink:href="#Nowa_próbka_gradientu_1"/><linearGradient id="Nowa_próbka_gradientu_1-11" x1="159.06" y1="149.97" x2="168.5" y2="149.97" xlink:href="#Nowa_próbka_gradientu_1"/><linearGradient id="Nowa_próbka_gradientu_1-12" x1="316.47" y1="69.06" x2="332.42" y2="69.06" xlink:href="#Nowa_próbka_gradientu_1"/><linearGradient id="Nowa_próbka_gradientu_1-13" x1="169.37" y1="364.91" x2="182.14" y2="364.91" xlink:href="#Nowa_próbka_gradientu_1"/><linearGradient id="Nowa_próbka_gradientu_1-14" x1="290.54" y1="5.98" x2="309.68" y2="5.98" xlink:href="#Nowa_próbka_gradientu_1"/><linearGradient id="Nowa_próbka_gradientu_1-15" x1="328.51" y1="83.29" x2="332.85" y2="83.29" xlink:href="#Nowa_próbka_gradientu_1"/><linearGradient id="Nowa_próbka_gradientu_1-16" x1="259.49" y1="59.49" x2="266.05" y2="59.49" xlink:href="#Nowa_próbka_gradientu_1"/><linearGradient id="Nowa_próbka_gradientu_1-17" x1="293.61" y1="75.87" x2="299.41" y2="75.87" xlink:href="#Nowa_próbka_gradientu_1"/><linearGradient id="Nowa_próbka_gradientu_1-18" x1="190.11" y1="116.47" x2="190.19" y2="116.47" xlink:href="#Nowa_próbka_gradientu_1"/><linearGradient id="Nowa_próbka_gradientu_1-19" x1="191.2" y1="115.69" x2="191.21" y2="115.69" xlink:href="#Nowa_próbka_gradientu_1"/><linearGradient id="Nowa_próbka_gradientu_1-20" x1="190.42" y1="116.18" x2="190.67" y2="116.18" xlink:href="#Nowa_próbka_gradientu_1"/><linearGradient id="Nowa_próbka_gradientu_1-21" x1="191.21" y1="114.69" x2="193.92" y2="114.69" xlink:href="#Nowa_próbka_gradientu_1"/><linearGradient id="Nowa_próbka_gradientu_1-22" x1="190.67" y1="115.89" x2="191.2" y2="115.89" xlink:href="#Nowa_próbka_gradientu_1"/><linearGradient id="Nowa_próbka_gradientu_1-23" x1="190.19" y1="116.44" x2="190.2" y2="116.44" xlink:href="#Nowa_próbka_gradientu_1"/><linearGradient id="Nowa_próbka_gradientu_1-24" x1="190.2" y1="116.35" x2="190.42" y2="116.35" xlink:href="#Nowa_próbka_gradientu_1"/><linearGradient id="Nowa_próbka_gradientu_1-25" x1="332.01" y1="202.63" x2="348.09" y2="202.63" xlink:href="#Nowa_próbka_gradientu_1"/></defs><title>smroot-Logo-vertical</title><g id="Warstwa_2" data-name="Warstwa 2"><g id="Warstwa_1-2" data-name="Warstwa 1"><path class="cls-1" d="M243.09,47.25l3.66-2.78L243,45.7C243,46.15,243.05,46.66,243.09,47.25Z"/><path class="cls-2" d="M283.08,29.5c-8.26-.29,3.86-7.5,6.55-8.91-33.67-23.66-82,31.14-64.77,25.9-.87,2.43-1.27,3.57-1.67,4.67,4.16-.42,11.62-2.77,19.81-5.46-.08-2.79.61-2.79,5.09-2.25l-1.34,1c16.14-5.31,33.64-11,34.21-5.65,1.48,13.91-14.78,5.25-15.61,9.56,5.48,6,48.11-6.67,23.24-10.35a42,42,0,0,1,3.84-8.65C289.51,29.55,286.41,29.61,283.08,29.5Z"/><path class="cls-3" d="M289.63,20.59l.08.06C290.36,20.25,290.23,20.28,289.63,20.59Z"/><path class="cls-4" d="M292.43,29.38c3.08-.18,6-.49,8.68-.88Q296.72,22.61,292.43,29.38Z"/><path class="cls-5" d="M296.58,264.38a14.41,14.41,0,0,0,.83,3.59C302.05,271.1,299.47,267.47,296.58,264.38Z"/><path class="cls-6" d="M418.88,373c-.59,2-.85,2.88-1.17,3.95-56.45-47.43-9.2-35.23,9-107,5.51-21.68,10.9-109.39-3.69-127,7.3-7.36-.34-78.64-7.56-72.88-27.68,22-32.69-23.85-61.42-39.85-21.18-11.79-32.59-4.59-53-1.68q3.86,5.19,7.8,20.18c3.67-12.91,1.16-17.44,11.55-3.6q-11.58,1.56-.08,9.61c3.48-6,11.92-10.73,16.18-1.5-12.37,1.63,13.95,10.68,2.76,27,17.83-5.8,23.28,30,4.18,24.37.24,2.18.42,3.86.68,6.21-7.37-2.42-6.52,5.89-11.81,7.43,13.72,18.34-1.13,7.22-13.49,7.06-.1,8.73,12.09,23.78,15.77,32-22.9,5.29-52.08-36.2-65.68,5.57,12.52-2.3,23.37-7.95,34.1,2.71-6.15,3.75-42.78,15.83-39.3,25.15a83.45,83.45,0,0,1,44.44,10c-13.22,13-27.95-9.83-39.34-4.2,54.14,52-23.8,29.12-12.4,69.1-7.09-2.92-4-8.12-4-12.85-19.86,16.18-5.1,79.26-.73,84.6-5.65-2.57-30.7-13.39-26.56-5.86,6.79,12.36,15.9,20.08,20.23,33.87-17.64-7.11,10.3,13.79-2,16.34,7.73,11.08,13.54,43,13.54,55.38-39.08-3.87-23.68-54.93-41.69-65.85C203.75,424,258,452.85,307.86,442.34c19.89-4.2,76.65-44,100.89-31.44-2.39-7.06,10.36-21.37,16.19-17.17q-1.28-12.08,21.2-6.1C436.38,384.05,427.61,378.54,418.88,373Zm-3.8-143.83c12.12,4.81,1.52.6,0,0ZM307.35,183.6c-3.32-.65-20.67,5.09-32.69,1.14C296.22,163.2,308.32,183.79,307.35,183.6Zm20.73-46.12c-4.89-7.91,13,4.86,13.34,16.25Q331.42,149.13,328.08,137.48ZM286.61,376.1q-10.46,9.51-21.57,18.25C237.5,373.8,295.43,363.47,286.61,376.1Zm34.66-64.5c-53.07.73-12.51,30.44-7.79,25,.63,16.11,6.46,14,8.29,26.41-48.28-9.43-49.28-56.63-51.51-65.65l5.3-7c-13.28-2.33,11.07-10.94,2.91,4.81,3.77-.2,4.86,5.47,10.14,3.11C256.14,271.22,349.24,311.22,321.27,311.6Zm-9.94,19.25q-4.79,2-8.7-2.72Q312.16,324.1,311.33,330.85Zm-.82-41.14q3.4-4.45,7.5.19Q314,295.68,310.51,289.71ZM330,296.6q-6.76.72-10-4.8c6.76-3.3,15.9,1.33,21.32,6.2C336.72,298.12,333.45,299.4,330,296.6Zm9.61-36.1c1.91,3.17,1.66,7.1-2.11,11.66-.26-.25-18.3-2-18,4.66-7-5-11.73-8.61-17.08-.45a29.89,29.89,0,0,1-5-8.4c-1.56-1.05-3.94-2.86-7.4-5.71a7.64,7.64,0,0,1,2.53-1.3c.48-.09,2.31,1.57,4,3.42-1-11.26,15.47-14.47,28.58-11.82-2.29-2.6-3.39-5.6-2.53-8.75,3.79-13.92,12,1.26,16.78-4.75C350,225.68,313.84,224.38,309.29,224c2.15-6.52,6.81-5.82,3.65-11,7.54-4.35,36.65-26.43,43.75-27,3.57-.27-2.22,44.64,1,50.73C369.48,259.3,353.68,264.07,339.59,260.5Zm44.17-93.34c-2.12-5.3-1.09-9.89,1.73-14.44C387.64,155,386.67,162.81,383.76,167.16Z"/><path class="cls-7" d="M325.16,252.56c3.18,3.62,8.66,6.48,14.43,7.94C337.25,256.61,331.61,253.87,325.16,252.56Z"/><path class="cls-8" d="M175.68,169.14c-9.54,3.34-14.3,31.35,1.22,27.7.67-3.86-9.2-24.38,7.79-18.25C184.27,172,184.36,166.1,175.68,169.14Z"/><path class="cls-9" d="M178.19,151.61c11.14-3.05,4.34-9.19,5.22-17.1-2.37.58-10.44-10.32-11.72-4.53Q167.53,145.16,178.19,151.61Z"/><path class="cls-10" d="M170.56,353.79q-1.14-10.82,6.79-19.69C181.53,331.86,153.28,331.21,170.56,353.79Z"/><path class="cls-11" d="M164.52,138.56c-6.28-2.55-6.36,22.56-4.12,23Q174.17,148.47,164.52,138.56Z"/><path class="cls-12" d="M323.42,65.18c-2.15-.12-4.3-.47-6.95-.77,1,3.16,1.88,5.66,3.08,9.3C320.82,71.32,345.17,66.31,323.42,65.18Z"/><path class="cls-13" d="M172.41,356.41q-9.27,6.22,9.73,17C181.88,365.79,177.88,360.61,172.41,356.41Z"/><path class="cls-14" d="M309.68,6.11q.27-12.51-19.14.61Q291.5,17.49,309.68,6.11Z"/><path class="cls-15" d="M328.65,82.56a2.24,2.24,0,0,1,.3,1C338.6,87,327.12,80.14,328.65,82.56Z"/><path class="cls-16" d="M259.49,54.78c1.23,3.29,2.29,6.12,3.54,9.48Q270.5,54,259.49,54.78Z"/><path class="cls-17" d="M293.61,79l5.8-2.75-5.8-3.49Z"/><path class="cls-18" d="M190.19,116.44Z"/><path class="cls-19" d="M191.2,115.7h0Z"/><path class="cls-20" d="M190.42,116.27l.25-.18Z"/><path class="cls-21" d="M193,114.36l-1.81,1.33Z"/><path class="cls-22" d="M190.67,116.09l.53-.39Z"/><path class="cls-23" d="M190.19,116.44h0Z"/><path class="cls-24" d="M190.2,116.43l.22-.16Z"/><path class="cls-25" d="M343.93,195.19q-12.35,3.1-11.9,14.08C333.55,212.75,357.52,204.17,343.93,195.19Z"/><path class="cls-26" d="M271.65,515q-4.06-2.58-14.29-2.59h-9.24v25.49h9q10.79,0,14.71-3.5t3.92-9.94Q275.71,517.63,271.65,515Z"/><path class="cls-26" d="M352.46,511.61q-13.59,0-19.89,8.62t-6.3,21.49q0,12.46,6.16,21.57t20.59,9.1q13.31,0,19.47-8.33t6.16-21.64q0-14.56-6.72-22.69T352.46,511.61Z"/><path class="cls-26" d="M452.17,511.61q-13.57,0-19.88,8.62T426,541.72q0,12.46,6.17,21.57t20.58,9.1q13.31,0,19.47-8.33t6.16-21.64q0-14.56-6.72-22.69T452.17,511.61Z"/><path class="cls-26" d="M0,484V600.05H605.2V484ZM74.18,581.5q-9.53,7.43-26.19,7.42a73,73,0,0,1-18.42-2.38q-9.16-2.38-14.49-7.14l2.8-22.55,15,1.4-.14,11.06a26.22,26.22,0,0,0,8.13,3,40.18,40.18,0,0,0,5.74.49,33.35,33.35,0,0,0,12.18-1.89q4.77-1.89,4.76-8.75,0-7.56-5.6-10.15a55.07,55.07,0,0,0-13.16-4,93.14,93.14,0,0,1-13.24-3.3,25.14,25.14,0,0,1-11.13-7.14q-4.48-5-4.48-14.77,0-15.27,10.36-21.5A43.16,43.16,0,0,1,49,495.09a53.34,53.34,0,0,1,17.09,2.73q8.11,2.73,12.46,7.35l.84,19.75-15,1.4-1.26-10.65A21.35,21.35,0,0,0,56,512.45a30.22,30.22,0,0,0-6.93-.84,19.85,19.85,0,0,0-9.31,2q-3.72,2-3.72,6.87c0,3.82,1.59,6.49,4.77,8a53.35,53.35,0,0,0,10.92,3.64q5.59,1.13,13.09,3.15A29.84,29.84,0,0,1,78,542.77q5.67,5.54,5.67,17.16Q83.7,574.08,74.18,581.5Zm135.57-69H198.54v59.1h9.81v16H171.79v-16h8V536.82h-.56L155.27,580.1h-7.85l-25.77-45h-.56v36.41h8.69v16h-36v-16h9.81v-59.1H92.38v-16h26.89l32.36,56.44h.56l30.39-56.44h27.17Zm92,75.07H278.51l-18.06-34.73H248.12v18.76h9.8v16H219.55v-16h9.8v-59.1h-9.8v-16h41.18q16.93,0,26,6.93t9.1,20.66q0,9.24-4.76,15.47a28.73,28.73,0,0,1-12.61,9.32l12.33,22.68h10.92Zm84.8-12.46Q374.17,588.92,352,588.92t-34.18-13.86Q306,561.18,306,542.14q0-19.87,12.61-33.47t34-13.58q21.84,0,34.1,13.79t12.26,33Q399,561.19,386.56,575.06Zm99.72,0q-12.4,13.86-34.53,13.86t-34.17-13.86q-11.91-13.87-11.9-32.92,0-19.87,12.6-33.47t34-13.58q21.85,0,34.11,13.79t12.25,33Q498.67,561.19,486.28,575.06Zm87.88-46.36-2.8-16.25H556.93v59.1h14.85v16H524.16v-16h14v-59.1H523.74l-2.8,16.25-16-1.4,2.8-30.81h79.55l2.8,30.81Z"/></g></g></svg>