<svg xmlns="http://www.w3.org/2000/svg" viewBox="0 0 605.2 116.09"><defs><style>.cls-1{fill:#fff;}</style></defs><title>smroot-text-only-white</title><g id="Warstwa_2" data-name="Warstwa 2"><g id="Warstwa_1-2" data-name="Warstwa 1"><path class="cls-1" d="M271.65,31.09q-4.06-2.6-14.29-2.59h-9.24V54h9q10.79,0,14.71-3.51t3.92-9.94Q275.71,33.69,271.65,31.09Z"/><path class="cls-1" d="M352.46,27.66q-13.59,0-19.89,8.61t-6.3,21.5q0,12.46,6.16,21.56T353,88.44q13.31,0,19.47-8.34t6.16-21.63q0-14.56-6.72-22.69T352.46,27.66Z"/><path class="cls-1" d="M452.17,27.66q-13.57,0-19.88,8.61T426,57.77q0,12.46,6.17,21.56t20.58,9.11q13.31,0,19.47-8.34t6.16-21.63q0-14.56-6.72-22.69T452.17,27.66Z"/><path class="cls-1" d="M0,0V116.09H605.2V0ZM74.18,97.54Q64.66,105,48,105a73,73,0,0,1-18.42-2.38q-9.16-2.37-14.49-7.14l2.8-22.55,15,1.4-.14,11.07a26.48,26.48,0,0,0,8.13,3,40.18,40.18,0,0,0,5.74.49A33.35,33.35,0,0,0,58.77,87q4.77-1.89,4.76-8.76,0-7.56-5.6-10.15a55.07,55.07,0,0,0-13.16-4,93.09,93.09,0,0,1-13.24-3.29A25.31,25.31,0,0,1,20.4,53.64q-4.48-5-4.48-14.78,0-15.27,10.36-21.5A43.25,43.25,0,0,1,49,11.13a53.34,53.34,0,0,1,17.09,2.73q8.11,2.73,12.46,7.35L79.36,41l-15,1.4L63.11,31.72A21.15,21.15,0,0,0,56,28.5a30.22,30.22,0,0,0-6.93-.84,19.73,19.73,0,0,0-9.31,2q-3.72,1.95-3.72,6.86,0,5.75,4.77,8A52.75,52.75,0,0,0,51.77,48.1q5.59,1.13,13.09,3.15A29.76,29.76,0,0,1,78,58.82Q83.7,64.35,83.7,76,83.7,90.12,74.18,97.54Zm135.57-69H198.54V87.6h9.81v16H171.79v-16h8V52.86h-.56L155.27,96.14h-7.85l-25.77-45h-.56V87.6h8.69v16h-36v-16h9.81V28.5H92.38v-16h26.89L151.63,69h.56l30.39-56.44h27.17Zm92,75.06H278.51L260.45,68.83H248.12V87.6h9.8v16H219.55v-16h9.8V28.5h-9.8v-16h41.18q16.93,0,26,6.93t9.1,20.66q0,9.24-4.76,15.48a28.71,28.71,0,0,1-12.61,9.31L290.84,87.6h10.92Zm84.8-12.46Q374.17,105,352,105T317.86,91.1Q306,77.24,306,58.19q0-19.89,12.61-33.48t34-13.58q21.84,0,34.1,13.79t12.26,33Q399,77.23,386.56,91.1Zm99.72,0Q473.88,105,451.75,105T417.58,91.1q-11.91-13.86-11.9-32.91,0-19.89,12.6-33.48t34-13.58q21.85,0,34.11,13.79t12.25,33Q498.67,77.23,486.28,91.1Zm87.88-46.36-2.8-16.24H556.93V87.6h14.85v16H524.16v-16h14V28.5H523.74l-2.8,16.24-16-1.4,2.8-30.81h79.55l2.8,30.81Z"/></g></g></svg>