<svg xmlns="http://www.w3.org/2000/svg" xmlns:xlink="http://www.w3.org/1999/xlink" viewBox="0 0 287.07 444.48"><defs><style>.cls-1{fill:url(#Gradient_bez_nazwy_75);}.cls-2{fill:url(#Gradient_bez_nazwy_75-2);}.cls-3{fill:url(#Gradient_bez_nazwy_75-3);}.cls-4{fill:url(#Gradient_bez_nazwy_75-4);}.cls-5{fill:url(#Gradient_bez_nazwy_75-5);}.cls-6{fill:url(#Gradient_bez_nazwy_75-6);}.cls-7{fill:url(#Gradient_bez_nazwy_75-7);}.cls-8{fill:url(#Gradient_bez_nazwy_75-8);}.cls-9{fill:url(#Gradient_bez_nazwy_75-9);}.cls-10{fill:url(#Gradient_bez_nazwy_75-10);}.cls-11{fill:url(#Gradient_bez_nazwy_75-11);}.cls-12{fill:url(#Gradient_bez_nazwy_75-12);}.cls-13{fill:url(#Gradient_bez_nazwy_75-13);}.cls-14{fill:url(#Gradient_bez_nazwy_75-14);}.cls-15{fill:url(#Gradient_bez_nazwy_75-15);}.cls-16{fill:url(#Gradient_bez_nazwy_75-16);}.cls-17{fill:url(#Gradient_bez_nazwy_75-17);}.cls-18{fill:url(#Gradient_bez_nazwy_75-18);}.cls-19{fill:url(#Gradient_bez_nazwy_75-19);}.cls-20{fill:url(#Gradient_bez_nazwy_75-20);}.cls-21{fill:url(#Gradient_bez_nazwy_75-21);}.cls-22{fill:url(#Gradient_bez_nazwy_75-22);}.cls-23{fill:url(#Gradient_bez_nazwy_75-23);}.cls-24{fill:url(#Gradient_bez_nazwy_75-24);}.cls-25{fill:url(#Gradient_bez_nazwy_75-25);}</style><linearGradient id="Gradient_bez_nazwy_75" x1="83.94" y1="45.86" x2="87.68" y2="45.86" gradientUnits="userSpaceOnUse"><stop offset="0" stop-color="#90f9c4"/><stop offset="0.48" stop-color="#39f3bb"/><stop offset="1" stop-color="#28c76f"/></linearGradient><linearGradient id="Gradient_bez_nazwy_75-2" x1="62.2" y1="32.9" x2="137.26" y2="32.9" xlink:href="#Gradient_bez_nazwy_75"/><linearGradient id="Gradient_bez_nazwy_75-3" x1="130.57" y1="20.5" x2="131.08" y2="20.5" xlink:href="#Gradient_bez_nazwy_75"/><linearGradient id="Gradient_bez_nazwy_75-4" x1="133.37" y1="27.57" x2="142.04" y2="27.57" xlink:href="#Gradient_bez_nazwy_75"/><linearGradient id="Gradient_bez_nazwy_75-5" x1="137.52" y1="266.77" x2="140.89" y2="266.77" xlink:href="#Gradient_bez_nazwy_75"/><linearGradient id="Gradient_bez_nazwy_75-6" x1="54.61" y1="234.07" x2="287.07" y2="234.07" xlink:href="#Gradient_bez_nazwy_75"/><linearGradient id="Gradient_bez_nazwy_75-7" x1="166.1" y1="256.53" x2="180.53" y2="256.53" xlink:href="#Gradient_bez_nazwy_75"/><linearGradient id="Gradient_bez_nazwy_75-8" x1="7.78" y1="182.74" x2="25.63" y2="182.74" xlink:href="#Gradient_bez_nazwy_75"/><linearGradient id="Gradient_bez_nazwy_75-9" x1="11.46" y1="139.94" x2="25.6" y2="139.94" xlink:href="#Gradient_bez_nazwy_75"/><linearGradient id="Gradient_bez_nazwy_75-10" x1="5.85" y1="343.42" x2="18.71" y2="343.42" xlink:href="#Gradient_bez_nazwy_75"/><linearGradient id="Gradient_bez_nazwy_75-11" x1="0" y1="149.97" x2="9.44" y2="149.97" xlink:href="#Gradient_bez_nazwy_75"/><linearGradient id="Gradient_bez_nazwy_75-12" x1="157.41" y1="69.06" x2="173.36" y2="69.06" xlink:href="#Gradient_bez_nazwy_75"/><linearGradient id="Gradient_bez_nazwy_75-13" x1="10.31" y1="364.91" x2="23.07" y2="364.91" xlink:href="#Gradient_bez_nazwy_75"/><linearGradient id="Gradient_bez_nazwy_75-14" x1="131.48" y1="5.98" x2="150.62" y2="5.98" xlink:href="#Gradient_bez_nazwy_75"/><linearGradient id="Gradient_bez_nazwy_75-15" x1="169.44" y1="83.29" x2="173.79" y2="83.29" xlink:href="#Gradient_bez_nazwy_75"/><linearGradient id="Gradient_bez_nazwy_75-16" x1="100.43" y1="59.49" x2="106.99" y2="59.49" xlink:href="#Gradient_bez_nazwy_75"/><linearGradient id="Gradient_bez_nazwy_75-17" x1="134.55" y1="75.87" x2="140.35" y2="75.87" xlink:href="#Gradient_bez_nazwy_75"/><linearGradient id="Gradient_bez_nazwy_75-18" x1="31.05" y1="116.47" x2="31.12" y2="116.47" xlink:href="#Gradient_bez_nazwy_75"/><linearGradient id="Gradient_bez_nazwy_75-19" x1="32.14" y1="115.69" x2="32.15" y2="115.69" xlink:href="#Gradient_bez_nazwy_75"/><linearGradient id="Gradient_bez_nazwy_75-20" x1="31.35" y1="116.18" x2="31.6" y2="116.18" xlink:href="#Gradient_bez_nazwy_75"/><linearGradient id="Gradient_bez_nazwy_75-21" x1="32.15" y1="114.69" x2="34.86" y2="114.69" xlink:href="#Gradient_bez_nazwy_75"/><linearGradient id="Gradient_bez_nazwy_75-22" x1="31.6" y1="115.89" x2="32.14" y2="115.89" xlink:href="#Gradient_bez_nazwy_75"/><linearGradient id="Gradient_bez_nazwy_75-23" x1="31.12" y1="116.44" x2="31.13" y2="116.44" xlink:href="#Gradient_bez_nazwy_75"/><linearGradient id="Gradient_bez_nazwy_75-24" x1="31.13" y1="116.35" x2="31.35" y2="116.35" xlink:href="#Gradient_bez_nazwy_75"/><linearGradient id="Gradient_bez_nazwy_75-25" x1="172.95" y1="202.63" x2="189.02" y2="202.63" xlink:href="#Gradient_bez_nazwy_75"/></defs><title>smroot-logo-only</title><g id="Warstwa_2" data-name="Warstwa 2"><g id="Warstwa_1-2" data-name="Warstwa 1"><path class="cls-1" d="M84,47.25l3.65-2.78L83.94,45.7C84,46.15,84,46.66,84,47.25Z"/><path class="cls-2" d="M124,29.5c-8.26-.29,3.86-7.5,6.55-8.91C96.9-3.07,48.59,51.73,65.8,46.49l-1.67,4.67c4.16-.42,11.61-2.77,19.81-5.46-.09-2.79.61-2.79,5.09-2.25l-1.35,1c16.15-5.31,33.65-11,34.22-5.65,1.48,13.91-14.78,5.25-15.61,9.56,5.48,6,48.11-6.67,23.24-10.35a41.43,41.43,0,0,1,3.84-8.65C130.44,29.55,127.35,29.61,124,29.5Z"/><path class="cls-3" d="M130.57,20.59l.08.06C131.3,20.25,131.16,20.28,130.57,20.59Z"/><path class="cls-4" d="M133.37,29.38c3.08-.18,6-.49,8.67-.88Q137.66,22.61,133.37,29.38Z"/><path class="cls-5" d="M137.52,264.38a13.93,13.93,0,0,0,.82,3.59C143,271.1,140.41,267.47,137.52,264.38Z"/><path class="cls-6" d="M259.82,373c-.6,2-.86,2.88-1.17,3.95-56.45-47.43-9.2-35.23,9-107,5.5-21.68,10.89-109.39-3.69-127,7.3-7.36-.34-78.64-7.57-72.88-27.67,22-32.69-23.85-61.42-39.85-21.18-11.79-32.58-4.59-53-1.68q3.87,5.19,7.81,20.18c3.67-12.91,1.16-17.44,11.55-3.6q-11.6,1.56-.08,9.61c3.48-6,11.92-10.73,16.17-1.5-12.37,1.63,14,10.68,2.77,27,17.83-5.8,23.28,30,4.18,24.37.24,2.18.42,3.86.67,6.21-7.37-2.42-6.51,5.89-11.81,7.43,13.72,18.34-1.13,7.22-13.48,7.06-.1,8.73,12.09,23.78,15.76,32-22.9,5.29-52.08-36.2-65.67,5.57,12.51-2.3,23.36-7.95,34.1,2.71-6.16,3.75-42.78,15.83-39.31,25.15a83.43,83.43,0,0,1,44.44,10c-13.22,13-27.95-9.83-39.34-4.2,54.15,52-23.79,29.12-12.39,69.1-7.09-2.92-4-8.12-4-12.85-19.85,16.18-5.09,79.26-.72,84.6C87,334.68,62,323.86,66.12,331.39c6.79,12.36,15.9,20.08,20.23,33.87-17.63-7.11,10.31,13.79-2,16.34,7.73,11.08,13.54,43,13.54,55.38-39.08-3.87-23.69-54.93-41.69-65.85C44.69,424,99,452.85,148.8,442.34c19.89-4.2,76.65-44,100.89-31.44-2.4-7.06,10.36-21.37,16.18-17.17q-1.26-12.08,21.2-6.1C277.31,384.05,268.55,378.54,259.82,373ZM256,229.17c12.12,4.81,1.52.6,0,0ZM148.28,183.6c-3.31-.65-20.66,5.09-32.68,1.14C137.16,163.2,149.26,183.79,148.28,183.6ZM169,137.48c-4.9-7.91,13,4.86,13.34,16.25Q172.34,149.13,169,137.48ZM127.55,376.1Q117.1,385.61,106,394.35C78.43,373.8,136.37,363.47,127.55,376.1Zm34.65-64.5c-53.06.73-12.51,30.44-7.78,25,.63,16.11,6.46,14,8.29,26.41-48.28-9.43-49.28-56.63-51.51-65.65l5.3-7c-13.28-2.33,11.06-10.94,2.91,4.81,3.76-.2,4.86,5.47,10.13,3.11C97.08,271.22,190.18,311.22,162.2,311.6Zm-9.94,19.25q-4.78,2-8.69-2.72Q153.08,324.1,152.26,330.85Zm-.81-41.14q3.39-4.45,7.5.19Q154.92,295.68,151.45,289.71Zm19.47,6.89q-6.76.72-10-4.8c6.76-3.3,15.9,1.33,21.32,6.2C177.66,298.12,174.39,299.4,170.92,296.6Zm9.61-36.1c1.91,3.17,1.65,7.1-2.11,11.66-.26-.25-18.3-2-18,4.66-7-5-11.73-8.61-17.08-.45a30.2,30.2,0,0,1-5-8.4c-1.56-1.05-3.93-2.86-7.39-5.71a7.53,7.53,0,0,1,2.53-1.3c.47-.09,2.31,1.57,4,3.42-1-11.26,15.47-14.47,28.58-11.82-2.29-2.6-3.39-5.6-2.54-8.75,3.79-13.92,12,1.26,16.78-4.75C191,225.68,154.77,224.38,150.23,224c2.15-6.52,6.81-5.82,3.64-11,7.55-4.35,36.66-26.43,43.76-27,3.57-.27-2.22,44.64,1,50.73C210.42,259.3,194.62,264.07,180.53,260.5Zm44.17-93.34c-2.12-5.3-1.09-9.89,1.73-14.44C228.58,155,227.61,162.81,224.7,167.16Z"/><path class="cls-7" d="M166.1,252.56c3.18,3.62,8.66,6.48,14.43,7.94C178.18,256.61,172.55,253.87,166.1,252.56Z"/><path class="cls-8" d="M16.61,169.14c-9.53,3.34-14.29,31.35,1.22,27.7.68-3.86-9.19-24.38,7.8-18.25C25.21,172,25.3,166.1,16.61,169.14Z"/><path class="cls-9" d="M19.12,151.61c11.14-3.05,4.34-9.19,5.23-17.1-2.37.58-10.44-10.32-11.72-4.53Q8.47,145.16,19.12,151.61Z"/><path class="cls-10" d="M11.5,353.79Q10.36,343,18.28,334.1C22.47,331.86-5.78,331.21,11.5,353.79Z"/><path class="cls-11" d="M5.46,138.56c-6.28-2.55-6.36,22.56-4.13,23Q15.12,148.47,5.46,138.56Z"/><path class="cls-12" d="M164.36,65.18c-2.16-.12-4.3-.47-7-.77,1.05,3.16,1.87,5.66,3.08,9.3C161.75,71.32,186.11,66.31,164.36,65.18Z"/><path class="cls-13" d="M13.34,356.41q-9.25,6.22,9.73,17C22.81,365.79,18.82,360.61,13.34,356.41Z"/><path class="cls-14" d="M150.62,6.11q.25-12.51-19.14.61Q132.43,17.49,150.62,6.11Z"/><path class="cls-15" d="M169.59,82.56a2.24,2.24,0,0,1,.3,1C179.54,87,168.05,80.14,169.59,82.56Z"/><path class="cls-16" d="M100.43,54.78c1.23,3.29,2.29,6.12,3.54,9.48Q111.44,54,100.43,54.78Z"/><path class="cls-17" d="M134.55,79l5.8-2.75-5.8-3.49Z"/><path class="cls-18" d="M31.12,116.44Z"/><path class="cls-19" d="M32.14,115.7h0Z"/><path class="cls-20" d="M31.35,116.27l.25-.18Z"/><path class="cls-21" d="M34,114.36l-1.81,1.33Z"/><path class="cls-22" d="M31.6,116.09l.54-.39Z"/><path class="cls-23" d="M31.12,116.44h0Z"/><path class="cls-24" d="M31.13,116.43l.22-.16Z"/><path class="cls-25" d="M184.87,195.19q-12.35,3.1-11.91,14.08C174.49,212.75,198.46,204.17,184.87,195.19Z"/></g></g></svg>