<svg xmlns="http://www.w3.org/2000/svg" xmlns:xlink="http://www.w3.org/1999/xlink" viewBox="0 0 981.43 981.43"><defs><style>.cls-1{fill:#fff;}.cls-2{fill:url(#Gradient_bez_nazwy_75);}.cls-3{fill:url(#Gradient_bez_nazwy_75-2);}.cls-4{fill:url(#Gradient_bez_nazwy_75-3);}.cls-5{fill:url(#Gradient_bez_nazwy_75-4);}.cls-6{fill:url(#Gradient_bez_nazwy_75-5);}.cls-7{fill:url(#Gradient_bez_nazwy_75-6);}.cls-8{fill:url(#Gradient_bez_nazwy_75-7);}.cls-9{fill:url(#Gradient_bez_nazwy_75-8);}.cls-10{fill:url(#Gradient_bez_nazwy_75-9);}.cls-11{fill:url(#Gradient_bez_nazwy_75-10);}.cls-12{fill:url(#Gradient_bez_nazwy_75-11);}.cls-13{fill:url(#Gradient_bez_nazwy_75-12);}.cls-14{fill:url(#Gradient_bez_nazwy_75-13);}.cls-15{fill:url(#Gradient_bez_nazwy_75-14);}.cls-16{fill:url(#Gradient_bez_nazwy_75-15);}.cls-17{fill:url(#Gradient_bez_nazwy_75-16);}.cls-18{fill:url(#Gradient_bez_nazwy_75-17);}.cls-19{fill:url(#Gradient_bez_nazwy_75-18);}.cls-20{fill:url(#Gradient_bez_nazwy_75-19);}.cls-21{fill:url(#Gradient_bez_nazwy_75-20);}.cls-22{fill:url(#Gradient_bez_nazwy_75-21);}.cls-23{fill:url(#Gradient_bez_nazwy_75-22);}.cls-24{fill:url(#Gradient_bez_nazwy_75-23);}.cls-25{fill:url(#Gradient_bez_nazwy_75-24);}.cls-26{fill:url(#Gradient_bez_nazwy_75-25);}.cls-27{fill:#252525;}</style><linearGradient id="Gradient_bez_nazwy_75" x1="431.12" y1="236.55" x2="434.86" y2="236.55" gradientUnits="userSpaceOnUse"><stop offset="0" stop-color="#90f9c4"/><stop offset="0.48" stop-color="#39f3bb"/><stop offset="1" stop-color="#28c76f"/></linearGradient><linearGradient id="Gradient_bez_nazwy_75-2" x1="409.38" y1="223.59" x2="484.44" y2="223.59" xlink:href="#Gradient_bez_nazwy_75"/><linearGradient id="Gradient_bez_nazwy_75-3" x1="477.74" y1="211.19" x2="478.26" y2="211.19" xlink:href="#Gradient_bez_nazwy_75"/><linearGradient id="Gradient_bez_nazwy_75-4" x1="480.54" y1="218.26" x2="489.22" y2="218.26" xlink:href="#Gradient_bez_nazwy_75"/><linearGradient id="Gradient_bez_nazwy_75-5" x1="484.7" y1="457.46" x2="488.07" y2="457.46" xlink:href="#Gradient_bez_nazwy_75"/><linearGradient id="Gradient_bez_nazwy_75-6" x1="401.79" y1="424.76" x2="634.25" y2="424.76" xlink:href="#Gradient_bez_nazwy_75"/><linearGradient id="Gradient_bez_nazwy_75-7" x1="513.28" y1="447.22" x2="527.71" y2="447.22" xlink:href="#Gradient_bez_nazwy_75"/><linearGradient id="Gradient_bez_nazwy_75-8" x1="354.96" y1="373.43" x2="372.8" y2="373.43" xlink:href="#Gradient_bez_nazwy_75"/><linearGradient id="Gradient_bez_nazwy_75-9" x1="358.64" y1="330.63" x2="372.78" y2="330.63" xlink:href="#Gradient_bez_nazwy_75"/><linearGradient id="Gradient_bez_nazwy_75-10" x1="353.02" y1="534.11" x2="365.89" y2="534.11" xlink:href="#Gradient_bez_nazwy_75"/><linearGradient id="Gradient_bez_nazwy_75-11" x1="347.18" y1="340.66" x2="356.61" y2="340.66" xlink:href="#Gradient_bez_nazwy_75"/><linearGradient id="Gradient_bez_nazwy_75-12" x1="504.59" y1="259.75" x2="520.53" y2="259.75" xlink:href="#Gradient_bez_nazwy_75"/><linearGradient id="Gradient_bez_nazwy_75-13" x1="357.48" y1="555.6" x2="370.25" y2="555.6" xlink:href="#Gradient_bez_nazwy_75"/><linearGradient id="Gradient_bez_nazwy_75-14" x1="478.66" y1="196.67" x2="497.8" y2="196.67" xlink:href="#Gradient_bez_nazwy_75"/><linearGradient id="Gradient_bez_nazwy_75-15" x1="516.62" y1="273.98" x2="520.97" y2="273.98" xlink:href="#Gradient_bez_nazwy_75"/><linearGradient id="Gradient_bez_nazwy_75-16" x1="447.61" y1="250.18" x2="454.17" y2="250.18" xlink:href="#Gradient_bez_nazwy_75"/><linearGradient id="Gradient_bez_nazwy_75-17" x1="481.73" y1="266.56" x2="487.52" y2="266.56" xlink:href="#Gradient_bez_nazwy_75"/><linearGradient id="Gradient_bez_nazwy_75-18" x1="378.22" y1="307.16" x2="378.3" y2="307.16" xlink:href="#Gradient_bez_nazwy_75"/><linearGradient id="Gradient_bez_nazwy_75-19" x1="379.31" y1="306.38" x2="379.33" y2="306.38" xlink:href="#Gradient_bez_nazwy_75"/><linearGradient id="Gradient_bez_nazwy_75-20" x1="378.53" y1="306.87" x2="378.78" y2="306.87" xlink:href="#Gradient_bez_nazwy_75"/><linearGradient id="Gradient_bez_nazwy_75-21" x1="379.33" y1="305.38" x2="382.04" y2="305.38" xlink:href="#Gradient_bez_nazwy_75"/><linearGradient id="Gradient_bez_nazwy_75-22" x1="378.78" y1="306.58" x2="379.31" y2="306.58" xlink:href="#Gradient_bez_nazwy_75"/><linearGradient id="Gradient_bez_nazwy_75-23" x1="378.3" y1="307.13" x2="378.31" y2="307.13" xlink:href="#Gradient_bez_nazwy_75"/><linearGradient id="Gradient_bez_nazwy_75-24" x1="378.31" y1="307.04" x2="378.53" y2="307.04" xlink:href="#Gradient_bez_nazwy_75"/><linearGradient id="Gradient_bez_nazwy_75-25" x1="520.13" y1="393.32" x2="536.2" y2="393.32" xlink:href="#Gradient_bez_nazwy_75"/></defs><title>smroot-circle-Logo-white</title><g id="Warstwa_2" data-name="Warstwa 2"><g id="Warstwa_1-2" data-name="Warstwa 1"><circle class="cls-1" cx="490.71" cy="490.71" r="490.71"/><path class="cls-2" d="M431.2,237.94l3.66-2.78-3.74,1.23C431.13,236.84,431.16,237.35,431.2,237.94Z"/><path class="cls-3" d="M471.2,220.19c-8.26-.29,3.86-7.5,6.54-8.91-33.67-23.66-82,31.14-64.76,25.9l-1.67,4.67c4.16-.42,11.61-2.77,19.81-5.46-.09-2.79.61-2.79,5.09-2.25-.49.36-.93.7-1.35,1,16.15-5.31,33.65-11,34.22-5.65,1.48,13.91-14.79,5.25-15.62,9.56,5.49,6,48.12-6.67,23.25-10.35a42,42,0,0,1,3.83-8.65C477.62,220.24,474.52,220.3,471.2,220.19Z"/><path class="cls-4" d="M477.74,211.28l.09.06C478.48,210.94,478.34,211,477.74,211.28Z"/><path class="cls-5" d="M480.54,220.07c3.09-.18,6-.49,8.68-.88Q484.83,213.3,480.54,220.07Z"/><path class="cls-6" d="M484.7,455.07a13.93,13.93,0,0,0,.82,3.59C490.16,461.79,487.58,458.16,484.7,455.07Z"/><path class="cls-7" d="M607,563.69l-1.17,3.95c-56.44-47.43-9.19-35.23,9-107,5.51-21.68,10.9-109.39-3.68-127,7.29-7.36-.34-78.64-7.57-72.89-27.67,22-32.69-23.84-61.42-39.84-21.18-11.79-32.59-4.59-53-1.68q3.86,5.19,7.81,20.18c3.66-12.91,1.16-17.44,11.55-3.6q-11.59,1.56-.08,9.61c3.48-6,11.91-10.73,16.17-1.5-12.37,1.63,14,10.68,2.76,27,17.84-5.79,23.28,30,4.19,24.37.23,2.18.42,3.87.67,6.22-7.37-2.42-6.51,5.89-11.81,7.42,13.72,18.35-1.13,7.23-13.49,7.07-.1,8.73,12.1,23.78,15.77,31.94-22.9,5.3-52.08-36.2-65.67,5.58,12.51-2.3,23.36-8,34.09,2.71-6.15,3.75-42.77,15.82-39.3,25.14a83.46,83.46,0,0,1,44.44,10c-13.22,13-27.95-9.83-39.34-4.2,54.15,52-23.79,29.12-12.4,69.1-7.09-2.92-4-8.12-4-12.85-19.86,16.18-5.09,79.25-.73,84.6-5.64-2.57-30.7-13.39-26.56-5.86,6.79,12.36,15.9,20.08,20.23,33.87-17.64-7.11,10.31,13.79-2,16.34,7.73,11.08,13.54,43.05,13.54,55.38-39.08-3.87-23.69-54.93-41.69-65.86C391.86,614.73,446.16,643.54,496,633c19.89-4.2,76.64-44,100.89-31.44-2.4-7.06,10.35-21.37,16.18-17.17q-1.26-12.07,21.2-6.1C624.49,574.74,615.72,569.23,607,563.69Zm-3.8-143.83c12.13,4.81,1.52.6,0,0ZM495.46,374.29c-3.32-.66-20.66,5.08-32.68,1.14C484.34,353.89,496.44,374.48,495.46,374.29Zm20.73-46.12c-4.89-7.91,13,4.86,13.34,16.25Q519.53,339.82,516.19,328.17ZM474.73,566.78q-10.46,9.53-21.58,18.25C425.61,564.49,483.55,554.16,474.73,566.78Zm34.65-64.49c-53.06.73-12.51,30.44-7.79,25,.64,16.11,6.47,14,8.29,26.41-48.28-9.43-49.28-56.63-51.51-65.65,1.72-2.27,3.43-4.51,5.31-7-13.28-2.33,11.06-10.95,2.9,4.81,3.77-.2,4.87,5.47,10.14,3.11C444.25,461.91,537.36,501.91,509.38,502.29Zm-9.94,19.25q-4.79,2-8.69-2.72Q500.26,514.79,499.44,521.54Zm-.82-41.14q3.4-4.45,7.5.19Q502.09,486.37,498.62,480.4Zm19.48,6.89q-6.76.72-10-4.8c6.75-3.3,15.9,1.33,21.32,6.2C524.83,488.81,521.57,490.09,518.1,487.29Zm9.61-36.1c1.91,3.17,1.65,7.1-2.11,11.66-.26-.25-18.31-2-18,4.66-7-5-11.73-8.61-17.08-.45a30.2,30.2,0,0,1-5-8.4c-1.56-1.05-3.93-2.86-7.39-5.71a7.25,7.25,0,0,1,2.53-1.3c.47-.09,2.31,1.57,4,3.42-1-11.26,15.47-14.47,28.58-11.82-2.3-2.6-3.4-5.6-2.54-8.75,3.79-13.92,12,1.26,16.78-4.75,10.61-13.38-25.57-14.68-30.12-15.06,2.16-6.52,6.81-5.82,3.65-11,7.55-4.35,36.65-26.43,43.75-27,3.58-.27-2.22,44.64,1,50.72C557.6,450,541.8,454.76,527.71,451.19Zm44.16-93.34c-2.11-5.3-1.08-9.89,1.73-14.45C575.76,345.69,574.79,353.5,571.87,357.85Z"/><path class="cls-8" d="M513.28,443.25c3.18,3.62,8.66,6.48,14.43,7.94C525.36,447.3,519.73,444.56,513.28,443.25Z"/><path class="cls-9" d="M363.79,359.83c-9.53,3.34-14.29,31.35,1.22,27.7.67-3.86-9.2-24.38,7.79-18.26C372.38,362.68,372.48,356.79,363.79,359.83Z"/><path class="cls-10" d="M366.3,342.3c11.14-3.05,4.34-9.19,5.22-17.1-2.36.58-10.43-10.32-11.71-4.53Q355.64,335.85,366.3,342.3Z"/><path class="cls-11" d="M358.68,544.48q-1.15-10.82,6.78-19.69C369.65,522.54,341.39,521.9,358.68,544.48Z"/><path class="cls-12" d="M352.63,329.25c-6.28-2.55-6.35,22.56-4.12,23Q362.29,339.16,352.63,329.25Z"/><path class="cls-13" d="M511.54,255.86c-2.16-.11-4.3-.46-7-.76l3.07,9.3C508.93,262,533.28,257,511.54,255.86Z"/><path class="cls-14" d="M360.52,547.1q-9.27,6.21,9.73,17C370,556.47,366,551.3,360.52,547.1Z"/><path class="cls-15" d="M497.79,196.8q.27-12.51-19.13.6Q479.61,208.17,497.79,196.8Z"/><path class="cls-16" d="M516.77,273.25a2.24,2.24,0,0,1,.3,1C526.71,277.7,515.23,270.83,516.77,273.25Z"/><path class="cls-17" d="M447.61,245.47c1.22,3.29,2.28,6.12,3.54,9.48Q458.61,244.65,447.61,245.47Z"/><path class="cls-18" d="M481.73,269.68l5.79-2.75-5.79-3.49Z"/><path class="cls-19" d="M378.3,307.13Z"/><path class="cls-20" d="M379.31,306.39h0Z"/><path class="cls-21" d="M378.53,307l.25-.18Z"/><path class="cls-22" d="M381.13,305.05l-1.8,1.33C380.91,305.22,383.38,303.4,381.13,305.05Z"/><path class="cls-23" d="M378.78,306.78l.53-.39Z"/><path class="cls-24" d="M378.3,307.13h0Z"/><path class="cls-25" d="M378.31,307.12l.22-.16Z"/><path class="cls-26" d="M532.05,385.88Q519.71,389,520.14,400C521.66,403.44,545.63,394.86,532.05,385.88Z"/><path class="cls-27" d="M459.76,705.73q-4.06-2.58-14.28-2.59h-9.25v25.49h9q10.79,0,14.7-3.5t3.93-9.94Q463.83,708.32,459.76,705.73Z"/><path class="cls-27" d="M540.57,702.3q-13.59,0-19.89,8.61t-6.3,21.5q0,12.47,6.16,21.57t20.59,9.1q13.3,0,19.47-8.33t6.16-21.64q0-14.57-6.72-22.69T540.57,702.3Z"/><path class="cls-27" d="M640.29,702.3q-13.59,0-19.89,8.61t-6.3,21.5q0,12.47,6.16,21.57t20.59,9.1q13.3,0,19.47-8.33t6.16-21.64q0-14.57-6.72-22.69T640.29,702.3Z"/><path class="cls-27" d="M188.11,674.65V790.74h605.2V674.65Zm74.18,97.54q-9.53,7.42-26.19,7.42a72.84,72.84,0,0,1-18.41-2.38q-9.18-2.38-14.5-7.14l2.8-22.55,15,1.4L220.84,760a26.09,26.09,0,0,0,8.12,3,40.18,40.18,0,0,0,5.74.49,33.44,33.44,0,0,0,12.19-1.89q4.76-1.89,4.76-8.75,0-7.56-5.6-10.15a55.75,55.75,0,0,0-13.17-4,91.31,91.31,0,0,1-13.23-3.29,25.11,25.11,0,0,1-11.14-7.14q-4.48-5-4.48-14.77,0-15.27,10.36-21.5a43.19,43.19,0,0,1,22.69-6.24,53.3,53.3,0,0,1,17.09,2.74q8.11,2.73,12.46,7.35l.84,19.75-15,1.4-1.26-10.65a21.44,21.44,0,0,0-7.07-3.22,30.37,30.37,0,0,0-6.94-.84,19.88,19.88,0,0,0-9.31,2c-2.48,1.31-3.71,3.6-3.71,6.86q0,5.75,4.76,8a53.35,53.35,0,0,0,10.92,3.64q5.61,1.13,13.1,3.15a29.67,29.67,0,0,1,13.16,7.56q5.69,5.53,5.68,17.16Q271.82,764.76,262.29,772.19Zm135.57-69.05h-11.2v59.1h9.8v16H359.91v-16h8V727.51h-.56l-23.95,43.28h-7.84l-25.77-45h-.56v36.41h8.68v16h-36v-16h9.8v-59.1H280.5v-16h26.89l32.35,56.44h.56l30.39-56.44h27.17Zm92,75.07H466.63l-18.07-34.73H436.23v18.76H446v16H407.66v-16h9.81v-59.1h-9.81v-16h41.18q16.95,0,26.05,6.93t9.1,20.66q0,9.24-4.76,15.47a28.6,28.6,0,0,1-12.6,9.31L479,762.24h10.92Zm84.8-12.47q-12.39,13.88-34.52,13.87T506,765.74q-11.91-13.86-11.91-32.91,0-19.87,12.61-33.47t34-13.59q21.85,0,34.1,13.8t12.26,33Q587.07,751.89,574.67,765.74Zm99.72,0Q662,779.62,639.87,779.61t-34.18-13.87q-11.9-13.86-11.9-32.91,0-19.87,12.61-33.47t34-13.59q21.84,0,34.1,13.8t12.26,33Q686.79,751.89,674.39,765.74Zm87.88-46.35-2.8-16.25H745v59.1h14.85v16H712.27v-16h14v-59.1H711.85l-2.8,16.25-16-1.4,2.8-30.81h79.55l2.8,30.81Z"/></g></g></svg>